<?xml version="1.0" standalone="no"?>
<!DOCTYPE svg PUBLIC "-//W3C//DTD SVG 20010904//EN"
 "http://www.w3.org/TR/2001/REC-SVG-20010904/DTD/svg10.dtd">
<svg version="1.0" xmlns="http://www.w3.org/2000/svg"
 width="2500.000000pt" height="2500.000000pt" viewBox="0 0 2500.000000 2500.000000"
 preserveAspectRatio="xMidYMid meet">
<metadata>
Created by potrace 1.11, written by Peter Selinger 2001-2013
</metadata>
<g transform="translate(0.000000,2500.000000) scale(0.100000,-0.100000)"
fill="#000000" stroke="none">
<path d="M13900 24763 c8 -3 29 -11 45 -18 17 -7 51 -16 78 -19 26 -3 60 -12
75 -20 29 -15 121 -11 105 5 -12 12 -239 59 -281 58 -20 0 -30 -3 -22 -6z"/>
<path d="M13600 24730 c0 -4 26 -12 58 -19 236 -46 250 -48 221 -31 -34 20
-279 63 -279 50z"/>
<path d="M13352 24721 c-11 -6 -10 -10 5 -15 24 -9 258 -56 280 -56 39 0 -7
18 -87 35 -47 9 -95 23 -107 31 -25 16 -71 18 -91 5z"/>
<path d="M13105 24703 c-77 -17 -54 -27 148 -63 122 -21 138 -9 19 15 -48 10
-99 26 -114 36 -15 11 -28 18 -30 18 -2 -1 -12 -3 -23 -6z"/>
<path d="M12870 24671 c0 -10 34 -21 65 -21 28 0 6 16 -32 23 -18 4 -33 3 -33
-2z"/>
<path d="M12650 24655 c0 -11 71 -34 123 -41 35 -4 61 -12 64 -20 5 -15 60
-19 102 -7 22 6 22 7 -15 24 -20 11 -56 19 -78 19 -23 1 -70 7 -106 15 -70 15
-90 18 -90 10z"/>
<path d="M13045 24631 c6 -5 37 -13 70 -16 76 -8 54 10 -25 20 -39 5 -52 4
-45 -4z"/>
<path d="M12342 24615 c8 -8 240 -55 272 -55 49 0 26 8 -99 35 -112 23 -185
32 -173 20z"/>
<path d="M12150 24600 c0 -7 165 -47 236 -57 30 -4 44 -2 44 6 0 6 -10 11 -23
11 -12 0 -54 7 -92 16 -96 22 -165 32 -165 24z"/>
<path d="M11725 24546 c39 -25 39 -26 10 -21 -16 2 -50 7 -75 10 -25 4 -58 9
-75 12 -59 9 -10 -14 55 -27 36 -7 88 -19 115 -26 33 -10 70 -12 109 -8 l59 7
-39 20 c-21 11 -47 26 -56 34 -9 8 -45 17 -80 20 l-63 5 40 -26z"/>
<path d="M11935 24550 c-4 -6 7 -10 27 -10 25 0 29 3 18 10 -19 13 -37 13 -45
0z"/>
<path d="M12006 24542 c-9 -15 4 -21 66 -28 66 -8 88 10 25 20 -23 4 -52 9
-63 12 -12 3 -25 1 -28 -4z"/>
<path d="M8570 23961 c0 -6 5 -13 10 -16 6 -3 10 1 10 9 0 9 -4 16 -10 16 -5
0 -10 -4 -10 -9z"/>
<path d="M11911 22393 c-18 -20 -6 -29 14 -10 8 9 12 18 8 20 -5 3 -14 -2 -22
-10z"/>
<path d="M12000 22376 c0 -14 -3 -14 -21 -4 -17 11 -22 10 -30 -4 -7 -12 -18
-15 -42 -12 -20 3 -39 -1 -51 -11 -20 -15 -20 -15 0 -30 19 -15 19 -16 -3 -13
-28 4 -74 -48 -72 -82 1 -14 -1 -32 -4 -40 -14 -39 -14 -69 2 -75 14 -6 14 -8
-1 -19 -25 -19 -22 -33 10 -44 15 -6 21 -11 15 -11 -7 -1 -13 -8 -13 -16 0
-10 10 -15 29 -15 36 0 48 15 24 29 -17 10 -16 10 3 11 11 0 25 -5 32 -12 9
-9 15 -9 23 -1 6 6 17 10 23 9 6 -2 8 -1 4 1 -14 8 -9 23 7 23 18 0 19 12 4
27 -12 12 -4 33 12 33 5 0 9 -7 9 -15 0 -8 7 -15 15 -15 9 0 12 6 8 17 -5 13
-2 15 13 10 18 -7 18 -6 -1 10 -32 28 -30 50 4 58 16 3 35 12 41 20 12 15 3
66 -14 77 -6 5 5 6 24 3 19 -3 29 -3 23 1 -20 9 -15 21 10 29 21 7 21 7 2 12
-10 3 -21 0 -23 -6 -5 -14 -42 -15 -42 -1 0 6 7 10 15 10 8 0 21 14 30 30 17
33 11 37 -19 15 -13 -10 -15 -15 -6 -15 7 0 11 -2 8 -5 -8 -8 -39 6 -33 15 3
5 1 11 -5 15 -5 3 -10 -1 -10 -9z m-80 -36 c0 -5 -4 -10 -10 -10 -5 0 -10 5
-10 10 0 6 5 10 10 10 6 0 10 -4 10 -10z m77 -52 c-3 -8 -6 -5 -6 6 -1 11 2
17 5 13 3 -3 4 -12 1 -19z m-47 2 c0 -5 -8 -10 -17 -10 -15 0 -16 2 -3 10 19
12 20 12 20 0z m-130 -40 c0 -5 -4 -10 -10 -10 -5 0 -10 5 -10 10 0 6 5 10 10
10 6 0 10 -4 10 -10z m197 -46 c-3 -3 -12 -4 -19 -1 -8 3 -5 6 6 6 11 1 17 -2
13 -5z"/>
<path d="M12065 22210 c-3 -5 -1 -10 4 -10 6 0 11 5 11 10 0 6 -2 10 -4 10 -3
0 -8 -4 -11 -10z"/>
<path d="M11258 22025 c-21 -7 -40 -10 -43 -6 -3 3 -10 -1 -14 -8 -5 -7 -20
-13 -34 -13 -44 0 -91 -125 -137 -363 -21 -114 -30 -170 -30 -197 0 -20 -5
-28 -17 -28 -15 0 -16 -2 -3 -10 12 -8 12 -11 -3 -28 -9 -10 -17 -28 -17 -40
0 -12 -5 -22 -11 -22 -6 0 -8 -7 -5 -16 4 -10 -1 -25 -10 -35 -14 -15 -14 -19
-3 -19 11 -1 11 -3 -1 -13 -12 -9 -17 -37 -19 -112 -5 -136 -5 -127 3 -245 4
-58 7 -116 6 -130 0 -14 5 -77 11 -140 7 -63 13 -133 14 -155 0 -22 4 -60 8
-85 4 -25 9 -92 12 -150 2 -58 9 -166 16 -240 16 -199 16 -195 23 -330 3 -69
8 -145 11 -170 2 -25 7 -115 10 -200 4 -85 8 -162 10 -170 2 -8 6 -98 10 -200
3 -102 8 -212 10 -245 3 -33 7 -168 10 -300 17 -783 32 -976 92 -1155 29 -87
45 -124 73 -165 11 -16 20 -38 20 -47 0 -10 5 -18 10 -18 13 0 14 -8 -19 96
-39 120 -68 275 -75 404 -3 58 -8 328 -11 600 -3 272 -8 551 -10 620 -3 69
-10 281 -15 471 -5 191 -12 353 -15 360 -8 25 -51 813 -46 868 4 48 13 -22 27
-205 53 -701 61 -839 69 -1149 3 -148 10 -398 15 -555 5 -157 9 -395 9 -530 2
-332 10 -493 27 -565 14 -55 34 -96 34 -68 0 19 47 23 85 7 21 -8 60 -17 87
-19 44 -3 50 -1 66 23 19 30 34 49 74 97 26 30 27 36 34 206 4 96 7 183 6 194
-5 93 0 346 24 1190 3 109 8 203 10 207 3 4 0 16 -5 26 -6 11 -6 23 -1 28 11
11 14 83 7 149 -4 27 -2 52 2 55 13 8 22 138 11 145 -6 3 -10 18 -9 33 0 24 1
25 9 7 6 -15 8 -6 8 30 0 40 -2 44 -7 20 -21 -97 -29 113 -17 440 2 65 0 127
-5 137 -5 9 -5 19 -1 22 12 7 13 146 1 146 -6 0 -8 -8 -5 -18 4 -10 0 -26 -7
-36 -13 -17 -14 -17 -20 -2 -4 10 -3 15 3 11 6 -4 10 9 10 29 0 25 4 36 15 36
9 0 15 9 15 21 0 16 -5 20 -19 16 -12 -3 -18 1 -17 11 1 9 -12 19 -34 25 -28
7 -31 11 -17 16 17 6 16 8 -8 21 l-26 14 43 11 c31 7 44 15 46 30 4 33 -11 47
-39 36 -21 -8 -22 -10 -6 -16 9 -4 17 -13 17 -21 0 -19 -9 -18 -32 3 -17 15
-20 15 -28 3 -7 -11 -10 -12 -10 -2 0 25 21 52 39 52 11 0 22 7 25 16 5 14 1
16 -24 11 -22 -5 -30 -3 -30 7 0 8 6 17 13 20 6 3 3 4 -8 3 -17 -2 -20 5 -23
41 -2 30 -8 42 -19 42 -12 0 -13 3 -3 15 6 8 9 19 5 25 -4 6 -2 17 5 25 9 10
5 15 -20 20 -34 7 -41 25 -10 25 11 0 20 7 20 16 0 10 -6 13 -19 9 -14 -4 -20
0 -23 19 -4 17 -1 23 9 19 20 -8 15 21 -7 37 -23 17 -27 35 -6 27 27 -11 29
27 2 48 -30 24 -34 39 -7 32 23 -6 51 9 51 28 0 17 -34 37 -45 27 -4 -4 -5 5
-1 21 7 29 -2 35 -22 15 -6 -6 -15 -8 -19 -4 -5 4 1 14 12 22 16 12 18 18 7
34 -10 17 -9 20 14 26 17 4 23 11 20 21 -3 8 -6 17 -6 19 0 3 -4 2 -10 -1 -5
-3 -21 2 -34 11 -14 9 -54 30 -88 48 -35 17 -63 38 -63 46 -1 19 41 60 60 60
21 0 27 16 10 30 -12 10 -13 16 -4 26 9 11 8 14 -1 14 -7 0 -10 7 -6 15 3 8 1
15 -4 15 -10 0 -1 70 11 85 4 6 8 39 8 74 -1 54 -3 64 -20 68 -22 6 -24 28 -6
66 15 33 38 43 50 22 8 -15 11 -15 34 0 15 10 28 13 32 8 3 -5 26 -9 50 -8 37
1 45 4 48 23 1 12 -2 22 -7 22 -6 0 -10 -6 -10 -13 0 -8 -14 -13 -35 -14 -29
-1 -34 2 -25 12 13 16 -15 35 -51 35 -18 0 -19 -2 -9 -15 8 -10 9 -15 1 -15
-6 0 -13 11 -17 25 -6 25 -24 35 -24 13 0 -7 -7 -5 -17 5 -16 13 -23 13 -55 2z
m302 -1585 c-8 -5 -22 -10 -30 -10 -13 0 -13 1 0 10 8 5 22 10 30 10 13 0 13
-1 0 -10z m77 -912 c-3 -8 -6 -5 -6 6 -1 11 2 17 5 13 3 -3 4 -12 1 -19z"/>
<path d="M11455 21990 c3 -5 8 -10 11 -10 2 0 4 5 4 10 0 6 -5 10 -11 10 -5 0
-7 -4 -4 -10z"/>
<path d="M11795 21970 c-3 -5 1 -10 10 -10 9 0 13 5 10 10 -3 6 -8 10 -10 10
-2 0 -7 -4 -10 -10z"/>
<path d="M11525 21960 c-3 -5 -1 -10 4 -10 6 0 11 5 11 10 0 6 -2 10 -4 10 -3
0 -8 -4 -11 -10z"/>
<path d="M11295 21890 c-3 -5 -1 -10 4 -10 6 0 11 5 11 10 0 6 -2 10 -4 10 -3
0 -8 -4 -11 -10z"/>
<path d="M13339 21561 c11 -7 11 -9 0 -14 -10 -4 -6 -13 14 -31 34 -32 87 -36
87 -7 0 26 -22 41 -48 34 -15 -3 -24 0 -28 11 -3 9 -14 16 -23 16 -13 0 -13
-2 -2 -9z"/>
<path d="M13147 21553 c-27 -7 -16 -121 15 -146 17 -14 19 -20 9 -27 -8 -4
-11 -15 -8 -24 3 -8 2 -18 -4 -22 -13 -8 -1 -86 15 -96 6 -4 27 -5 46 -3 19 2
61 7 93 10 l57 6 0 42 c0 23 -6 77 -12 120 -12 77 -13 79 -60 113 -47 34 -94
42 -151 27z"/>
<path d="M13666 21436 c-10 -18 -29 -39 -43 -45 -25 -11 -25 -14 -17 -69 10
-68 10 -108 4 -444 l-1 -78 30 0 c16 0 33 -6 38 -12 7 -11 14 -473 12 -825 0
-58 4 -103 9 -103 17 0 30 187 44 635 24 812 21 917 -24 955 -30 25 -31 25
-52 -14z"/>
<path d="M13260 21213 c-70 -5 -120 -23 -125 -47 -3 -12 -2 -41 3 -66 7 -40
11 -45 42 -52 19 -4 63 -8 98 -9 34 -1 62 -3 62 -6 0 -2 -13 -9 -30 -14 -16
-6 -30 -16 -30 -21 0 -6 -11 -7 -25 -4 -42 11 -73 -2 -71 -30 1 -16 7 -24 21
-25 31 -2 76 1 116 7 l36 5 1 110 c2 120 -8 160 -35 157 -10 -1 -38 -3 -63 -5z"/>
<path d="M13437 21186 c-3 -8 -2 -27 3 -43 8 -26 8 -25 9 15 1 43 -3 52 -12
28z"/>
<path d="M12968 20956 c-35 -12 -36 -24 -4 -32 29 -7 46 1 46 21 0 20 -11 23
-42 11z"/>
<path d="M11498 20943 c7 -3 16 -2 19 1 4 3 -2 6 -13 5 -11 0 -14 -3 -6 -6z"/>
<path d="M5330 20906 c-118 -30 -211 -136 -244 -276 -23 -96 -21 -137 8 -163
56 -51 72 -57 93 -36 8 8 13 8 17 0 4 -6 15 -11 24 -11 10 0 33 -15 52 -33 30
-27 79 -57 95 -57 3 0 5 7 5 15 0 8 4 15 8 15 5 0 17 16 28 35 14 27 16 37 6
47 -7 7 -12 18 -12 25 0 15 36 18 45 3 3 -5 15 -10 26 -10 10 0 19 5 19 10 0
6 -6 10 -14 10 -23 0 -48 31 -42 53 3 12 -3 31 -15 45 -14 18 -16 28 -9 37 14
17 49 25 56 14 3 -5 12 -9 21 -9 11 0 13 5 8 18 -4 9 -8 22 -8 27 0 14 -34 12
-70 -3 -19 -8 -34 -9 -47 -2 -24 13 -40 13 -40 0 0 -5 6 -10 14 -10 7 0 19 -7
26 -15 11 -13 10 -22 -4 -52 -13 -28 -14 -38 -5 -44 7 -4 14 -13 15 -21 1 -7
5 -25 9 -40 9 -34 -3 -36 -39 -7 -28 22 -33 48 -15 80 11 21 -5 89 -21 89 -17
0 -18 31 -1 66 14 27 19 32 24 20 12 -31 45 -18 68 26 20 39 22 41 35 23 7
-10 11 -23 7 -29 -3 -6 0 -6 7 1 11 10 16 9 27 -5 12 -15 13 -10 8 33 -11 88
-16 105 -38 116 -17 10 -24 8 -38 -10 -22 -27 -44 -29 -29 -2 5 11 10 22 10
24 0 12 -29 13 -70 3z"/>
<path d="M11510 20900 c-13 -8 -12 -10 3 -10 9 0 17 5 17 10 0 12 -1 12 -20 0z"/>
<path d="M13130 20876 c0 -9 7 -19 15 -22 13 -5 13 -8 0 -21 -18 -18 -18 -36
0 -88 8 -22 15 -48 15 -57 0 -13 11 -18 43 -21 l42 -3 -33 -8 c-89 -23 -7 -32
146 -16 6 0 -9 195 -16 202 -15 14 -87 27 -96 18 -6 -6 -13 -4 -20 5 -6 8 -30
17 -53 21 -36 5 -43 4 -43 -10z"/>
<path d="M12883 20873 c-38 -5 -56 -31 -47 -67 4 -19 14 -25 42 -28 51 -7 84
16 76 51 -10 45 -13 51 -26 49 -7 0 -28 -3 -45 -5z"/>
<path d="M13430 20855 c0 -15 4 -24 10 -20 6 3 10 12 10 20 0 8 -4 17 -10 20
-6 4 -10 -5 -10 -20z"/>
<path d="M11525 20859 c-11 -17 1 -21 15 -4 8 9 8 15 2 15 -6 0 -14 -5 -17
-11z"/>
<path d="M12774 20846 c-3 -8 -4 -29 -2 -48 2 -25 8 -33 23 -33 16 0 21 8 23
39 2 24 -2 42 -10 47 -19 12 -28 11 -34 -5z"/>
<path d="M11520 20816 c0 -9 5 -16 10 -16 6 0 10 4 10 9 0 6 -4 13 -10 16 -5
3 -10 -1 -10 -9z"/>
<path d="M15519 20803 c-106 -54 -177 -193 -186 -364 -7 -121 8 -191 46 -218
29 -20 86 -21 221 -1 111 17 170 14 170 -7 0 -7 8 -13 18 -14 10 0 12 -3 4 -6
-19 -7 -4 -23 24 -23 15 0 24 6 24 15 0 8 8 15 18 15 15 1 15 2 -3 16 -19 15
-17 15 25 9 33 -4 41 -3 30 4 -13 9 -13 12 -1 20 8 5 11 16 8 24 -3 8 -1 19 4
24 12 12 14 150 4 208 -26 149 -93 249 -200 301 -69 33 -136 32 -206 -3z"/>
<path d="M12950 20770 c-8 -5 -25 -10 -37 -10 -23 0 -48 -33 -38 -49 3 -5 1
-19 -3 -31 -8 -22 -9 -21 -26 14 -22 46 -61 51 -77 9 -13 -34 -3 -113 14 -113
30 0 54 13 62 33 8 17 19 22 50 22 66 1 80 10 82 52 1 21 4 47 5 57 4 22 -11
30 -32 16z"/>
<path d="M11702 20705 c0 -16 2 -22 5 -12 2 9 2 23 0 30 -3 6 -5 -1 -5 -18z"/>
<path d="M11684 20598 c8 -58 8 -51 -4 -153 -5 -49 -7 -103 -3 -120 5 -29 6
-29 14 -7 11 28 22 277 14 302 -12 38 -27 21 -21 -22z"/>
<path d="M11603 20603 c-25 -17 -31 -38 -9 -30 8 3 19 -5 26 -21 11 -21 14
-23 17 -10 2 9 0 26 -6 37 -8 14 -8 20 1 23 7 3 8 7 3 10 -6 3 -20 -1 -32 -9z"/>
<path d="M13215 20606 c-39 -7 -75 -15 -81 -19 -19 -12 -2 -195 20 -209 8 -5
7 -11 -2 -20 -6 -6 -12 -16 -12 -20 0 -10 191 -10 207 0 10 6 12 38 8 128 -3
65 -8 127 -11 137 -6 20 -26 20 -129 3z"/>
<path d="M11920 20586 c0 -9 5 -16 10 -16 6 0 10 4 10 9 0 6 -4 13 -10 16 -5
3 -10 -1 -10 -9z"/>
<path d="M12849 20562 c-11 -5 -15 -22 -16 -60 -1 -57 -12 -85 -14 -36 -1 16
-3 36 -4 44 -1 8 -3 23 -4 33 0 10 -9 17 -20 17 -17 0 -20 -10 -26 -74 -4 -41
-4 -79 -1 -85 10 -16 42 -13 56 4 9 11 16 13 24 5 5 -5 18 -10 28 -10 22 0 23
-13 3 -30 -12 -10 -18 -10 -30 0 -18 15 -72 4 -83 -17 -10 -17 -4 -61 10 -69
5 -3 30 -1 56 5 26 6 68 13 95 16 29 4 47 11 47 20 0 21 33 28 47 10 13 -19
33 -12 33 11 0 8 -4 12 -10 9 -5 -3 -10 1 -10 10 0 13 -4 14 -21 4 -34 -18
-44 3 -47 106 l-4 95 -46 -1 c-26 0 -54 -3 -63 -7z"/>
<path d="M11921 20468 c4 -39 -13 -158 -22 -158 -5 0 -9 4 -9 9 0 5 -6 11 -13
14 -11 4 -14 -6 -13 -39 1 -28 6 -44 14 -44 6 0 12 8 12 17 0 31 14 3 17 -37
4 -37 2 -40 -32 -54 -21 -9 -34 -20 -30 -26 4 -6 2 -17 -5 -25 -16 -19 -9
-100 9 -100 7 0 17 10 22 23 5 13 5 22 -2 22 -6 0 -6 7 1 19 5 11 10 31 10 45
0 14 4 27 9 31 6 3 10 -18 10 -49 0 -53 13 -96 30 -96 23 0 21 157 -2 172 -9
6 -9 10 -1 16 6 4 14 20 18 37 10 39 -4 245 -16 245 -5 0 -8 -10 -7 -22z"/>
<path d="M12999 20479 c-11 -8 -11 -12 -1 -16 6 -2 12 -11 12 -19 0 -15 16
-19 23 -6 2 4 -1 17 -8 29 -8 16 -15 19 -26 12z"/>
<path d="M5440 20444 c0 -8 5 -12 10 -9 6 3 10 10 10 16 0 5 -4 9 -10 9 -5 0
-10 -7 -10 -16z"/>
<path d="M13216 20304 c-109 -18 -109 -18 -102 -57 3 -17 7 -71 9 -118 2 -47
7 -91 11 -97 8 -13 93 -15 165 -4 l43 7 0 132 c0 73 -3 137 -7 143 -7 12 -16
12 -119 -6z"/>
<path d="M11676 20238 c-10 -73 -14 -336 -5 -350 5 -7 9 29 10 87 1 55 2 114
3 130 7 97 8 166 3 171 -3 3 -8 -14 -11 -38z"/>
<path d="M12847 20258 c-12 -9 -16 -24 -14 -48 2 -30 6 -35 31 -38 28 -4 28
-4 7 -18 -11 -8 -21 -21 -21 -28 0 -6 -5 -17 -11 -23 -9 -9 -16 -6 -29 9 -25
31 -52 17 -48 -24 2 -26 8 -34 26 -36 13 -2 29 1 36 7 6 6 22 7 35 4 18 -4 22
-11 18 -29 -4 -23 -1 -24 44 -24 46 0 49 2 49 25 0 16 -6 25 -16 25 -10 0 -14
6 -10 18 16 57 16 80 2 85 -10 4 -16 23 -18 54 -3 45 -5 48 -33 51 -16 2 -38
-3 -48 -10z"/>
<path d="M12762 20208 c2 -24 8 -43 13 -43 6 0 11 19 13 43 3 33 0 42 -13 42
-13 0 -16 -9 -13 -42z"/>
<path d="M13005 20128 c-9 -22 4 -43 17 -30 7 7 7 16 0 29 -10 17 -11 17 -17
1z"/>
<path d="M13371 20074 c0 -11 3 -14 6 -6 3 7 2 16 -1 19 -3 4 -6 -2 -5 -13z"/>
<path d="M13010 20035 c0 -8 5 -15 10 -15 6 0 10 7 10 15 0 8 -4 15 -10 15 -5
0 -10 -7 -10 -15z"/>
<path d="M12784 20030 c-23 -9 -38 -36 -24 -45 4 -3 21 0 37 5 15 6 34 13 40
15 18 6 4 35 -16 34 -9 0 -25 -4 -37 -9z"/>
<path d="M13280 20014 c-111 -16 -161 -28 -171 -40 -7 -9 -9 -35 -5 -76 3 -35
8 -83 10 -108 3 -25 6 -51 7 -59 2 -10 23 -12 100 -9 54 2 102 7 106 12 13 12
12 270 -1 278 -6 4 -13 7 -16 6 -3 0 -16 -2 -30 -4z"/>
<path d="M11909 19995 c-4 -5 -5 -28 -4 -50 4 -51 3 -51 14 -39 5 5 6 29 2 54
-3 25 -9 41 -12 35z"/>
<path d="M4250 19961 c-91 -49 -121 -104 -193 -362 -111 -393 -112 -396 -112
-509 0 -93 3 -109 23 -143 13 -20 28 -35 32 -32 5 3 11 1 15 -5 3 -5 13 -10
21 -10 9 0 12 5 8 11 -5 8 3 10 24 7 17 -2 29 -1 26 4 -3 4 6 8 20 8 16 0 30
8 37 22 7 13 18 29 26 36 7 7 13 25 14 40 0 15 6 45 14 67 10 33 13 35 14 15
2 -36 12 -70 21 -70 12 0 51 124 110 344 85 321 92 374 65 475 -26 98 -95 140
-165 102z"/>
<path d="M13359 19978 c-6 -24 -5 -59 2 -63 5 -4 9 10 9 29 0 20 -2 36 -5 36
-3 0 -5 -1 -6 -2z"/>
<path d="M12986 19958 c-22 -85 -40 -98 -50 -38 -6 39 -7 40 -49 40 -46 0 -73
-12 -63 -28 3 -6 2 -13 -4 -17 -6 -4 -8 -11 -5 -16 4 -5 1 -9 -4 -9 -6 0 -14
0 -18 0 -5 -1 -10 13 -13 30 -8 50 -24 36 -34 -29 -10 -70 2 -98 35 -80 10 5
19 16 19 24 0 10 8 7 25 -9 16 -15 25 -34 25 -54 0 -33 11 -45 48 -50 15 -2
24 3 28 15 3 10 12 30 20 45 13 24 13 27 -6 33 -23 7 -25 15 -7 37 18 23 47
30 53 13 13 -34 24 -11 22 45 -3 55 -14 79 -22 48z"/>
<path d="M11905 19879 c-4 -6 -7 -30 -7 -52 1 -23 -6 -71 -14 -106 -8 -35 -12
-78 -9 -95 4 -19 -2 -56 -15 -95 -11 -35 -18 -66 -15 -69 3 -3 5 1 5 9 1 8 8
1 16 -14 19 -36 11 -59 -18 -55 -29 4 -37 -27 -31 -122 3 -41 -3 -217 -12
-390 -9 -173 -17 -344 -16 -378 0 -43 -5 -72 -16 -89 -11 -16 -13 -27 -6 -31
8 -5 7 -50 -3 -151 -10 -106 -11 -148 -3 -158 8 -9 8 -17 0 -27 -13 -16 -42
-242 -34 -263 8 -20 57 -15 70 6 19 31 36 146 25 168 -7 13 -7 25 1 38 6 11
12 40 13 65 4 83 14 195 19 219 2 13 0 42 -5 65 -5 23 -5 45 0 51 5 6 11 58
13 115 3 58 8 130 12 160 3 30 7 64 7 75 0 11 4 36 8 55 19 80 29 450 15 504
-5 18 -4 31 4 36 8 4 14 48 18 118 5 97 4 112 -10 118 -15 5 -14 9 3 32 18 24
19 34 9 91 -5 36 -12 68 -15 72 -2 4 0 10 6 14 13 8 13 82 1 90 -5 3 -13 0
-16 -6z"/>
<path d="M11661 19835 c0 -35 2 -37 11 -19 7 15 7 28 -1 40 -9 16 -10 12 -10
-21z"/>
<path d="M12992 19794 c-25 -17 -31 -57 -7 -48 8 4 15 14 15 23 0 9 5 22 12
29 17 17 7 15 -20 -4z"/>
<path d="M12755 19784 c-10 -10 -15 -30 -13 -55 2 -37 4 -39 34 -39 25 0 33 5
37 23 8 34 2 68 -14 78 -20 12 -25 11 -44 -7z"/>
<path d="M4973 19759 c-55 -27 -118 -91 -149 -151 -24 -48 -29 -64 -85 -278
-17 -63 -39 -146 -51 -185 -28 -93 -46 -223 -37 -260 4 -16 10 -42 13 -57 4
-16 12 -27 18 -25 7 1 14 -7 16 -18 3 -20 8 -25 68 -55 16 -8 31 -17 34 -20 3
-3 32 -5 65 -6 41 -1 52 2 35 7 -14 4 -18 7 -9 8 11 1 16 9 15 25 -1 15 -6 22
-15 18 -11 -4 -11 -1 -2 17 7 12 17 19 23 15 8 -5 9 2 4 22 -6 24 -1 20 30
-23 58 -83 81 -80 145 16 27 42 59 132 104 301 23 84 39 145 70 255 27 96 33
202 14 268 -13 46 -67 109 -113 131 -49 23 -141 21 -193 -5z m197 -115 c20
-52 10 -116 -41 -268 -28 -83 -58 -158 -65 -167 -8 -8 -14 -20 -14 -26 0 -12
-38 -47 -69 -63 l-24 -12 6 48 c3 27 17 85 30 129 13 44 34 116 47 160 34 122
85 225 112 225 5 0 13 -12 18 -26z"/>
<path d="M13687 19713 c-10 -99 -9 -149 2 -137 12 11 22 177 12 193 -5 7 -11
-18 -14 -56z"/>
<path d="M13190 19696 c-36 -6 -70 -14 -76 -18 -8 -5 -12 -74 -13 -210 -2
-207 -3 -229 -16 -309 -4 -29 -3 -49 3 -53 7 -4 6 -22 -3 -54 -14 -48 -16
-234 -3 -247 4 -4 3 -15 -2 -24 -9 -18 -30 -187 -30 -246 0 -30 3 -35 23 -35
21 -1 21 -1 -5 -15 -25 -14 -26 -19 -26 -77 1 -35 -4 -80 -11 -101 -7 -21 -11
-57 -8 -80 2 -23 -2 -98 -9 -167 -18 -163 -18 -160 7 -160 11 0 19 -5 17 -11
-2 -6 -8 -10 -13 -9 -11 1 -25 -87 -17 -107 11 -31 69 -53 131 -51 l62 3 10
39 c6 21 9 63 8 95 -1 31 1 76 5 101 6 46 17 160 19 215 1 20 -2 29 -11 27
-10 -2 -10 2 -1 20 6 12 15 53 20 92 5 39 13 97 17 128 5 32 5 61 2 65 -4 4
-1 73 6 152 7 80 11 148 9 152 -3 4 -1 50 5 103 5 53 12 152 15 219 4 67 9
133 12 147 8 35 14 369 7 403 -6 31 -22 33 -134 13z m80 -536 c0 -5 -4 -10
-10 -10 -5 0 -10 5 -10 10 0 6 5 10 10 10 6 0 10 -4 10 -10z"/>
<path d="M9654 19673 c-9 -15 -14 -16 -26 -5 -13 10 -21 9 -47 -5 -25 -15 -34
-16 -51 -5 -26 16 -30 15 -30 -3 0 -9 -9 -15 -23 -15 -13 0 -28 -5 -35 -12 -9
-9 -12 -9 -12 0 0 17 -27 15 -34 -3 -3 -10 -19 -15 -44 -15 -23 0 -45 -6 -52
-15 -7 -8 -16 -12 -22 -9 -5 3 -16 0 -24 -7 -12 -10 -18 -9 -31 3 -14 14 -17
14 -34 -3 -12 -12 -31 -18 -51 -17 -18 2 -33 -3 -36 -10 -3 -10 -7 -10 -19 -1
-11 10 -16 10 -23 -1 -4 -7 -20 -14 -34 -16 -63 -7 -142 -27 -158 -41 -10 -9
-25 -12 -37 -8 -11 3 -34 -1 -53 -11 -18 -9 -53 -18 -78 -20 -63 -4 -272 -48
-265 -56 4 -3 -30 -4 -75 -2 -50 3 -113 -1 -163 -11 -97 -19 -438 -55 -449
-49 -25 15 -19 -39 38 -396 8 -52 19 -122 24 -155 12 -73 65 -457 85 -615 29
-219 35 -266 55 -409 11 -79 23 -147 26 -152 3 -5 15 -7 27 -5 12 3 58 10 102
16 179 25 210 32 251 56 23 14 48 32 55 40 6 8 20 12 30 9 9 -3 20 -2 23 4 3
5 22 6 43 1 106 -22 166 -19 149 9 -5 7 -14 7 -31 -1 -14 -6 -28 -9 -31 -5
-10 10 6 27 26 27 10 0 20 5 22 10 2 6 19 0 38 -13 19 -13 41 -22 48 -20 15 6
16 -9 1 -24 -12 -12 -19 -73 -8 -73 4 0 10 8 14 18 6 16 7 16 20 -2 12 -16 17
-17 30 -6 8 7 15 8 15 4 0 -5 -9 -15 -20 -22 -24 -14 -26 -32 -5 -32 9 0 20
-10 25 -22 7 -19 9 -16 9 20 1 29 5 42 13 40 20 -7 32 -34 23 -54 -15 -35 -13
-43 11 -68 18 -17 21 -26 12 -29 -7 -3 1 -6 17 -6 25 0 27 1 13 10 -10 5 -18
16 -18 24 0 7 -6 15 -12 18 -10 3 -10 7 -1 17 15 16 33 4 33 -21 0 -12 7 -19
20 -19 11 0 20 -4 20 -10 0 -5 -4 -10 -10 -10 -5 0 -10 -5 -10 -11 0 -7 9 -9
23 -5 49 14 73 16 86 7 12 -8 12 -12 2 -25 -17 -20 -7 -48 14 -40 12 5 13 10
6 17 -16 16 -13 25 10 32 17 6 19 9 8 16 -17 10 20 10 66 0 l30 -7 -37 -7
c-42 -9 -56 -32 -28 -47 17 -9 20 -7 20 11 0 15 4 19 16 15 9 -3 21 -6 27 -6
6 0 2 -7 -9 -15 -12 -9 -14 -14 -6 -15 7 0 10 -5 7 -11 -4 -6 -20 -7 -38 -3
-28 6 -30 5 -18 -10 7 -9 22 -16 32 -16 20 0 26 -16 8 -22 -19 -6 2 -40 22
-35 11 3 19 1 19 -4 0 -5 5 -9 10 -9 6 0 10 8 10 18 1 16 1 16 11 0 17 -30 28
-20 23 20 l-5 37 20 -39 c23 -43 19 -60 -10 -51 -13 4 -19 2 -19 -9 0 -9 8
-16 20 -16 10 0 24 -9 30 -21 7 -12 19 -19 33 -17 15 2 22 -4 27 -21 6 -25 30
-42 30 -21 0 6 5 8 11 5 6 -4 8 -13 5 -21 -3 -9 1 -14 13 -14 10 0 28 -13 40
-29 15 -20 28 -27 42 -24 13 4 19 0 19 -10 0 -17 38 -43 47 -33 3 3 15 -4 25
-17 11 -12 24 -23 29 -23 5 -1 13 -2 17 -3 20 -3 53 -41 47 -52 -5 -7 -3 -10
6 -7 8 3 19 -2 25 -10 6 -8 16 -12 23 -8 9 6 9 11 0 22 -9 12 -6 14 21 14 25
0 30 -3 23 -12 -6 -7 -10 -21 -10 -31 0 -16 6 -17 41 -12 60 9 87 25 84 49 -2
16 4 22 27 26 l30 6 -27 7 c-14 4 -32 5 -40 4 -7 -2 -10 -2 -5 0 11 7 9 33 -3
33 -19 0 -10 31 13 40 18 7 19 9 4 9 -20 1 -35 14 -54 48 -10 17 -9 22 2 27
24 9 17 26 -10 26 -14 0 -25 5 -25 10 0 6 5 10 10 10 6 0 10 7 10 15 0 17 -36
21 -43 5 -3 -6 -4 -5 -3 2 1 7 13 15 26 18 33 8 38 30 6 30 -16 0 -26 6 -26
15 0 18 23 19 50 3 10 -7 22 -9 26 -6 10 11 -6 28 -27 28 -14 0 -19 7 -19 30
0 20 -5 30 -15 30 -8 0 -15 5 -15 10 0 6 8 10 18 10 11 0 27 9 37 20 18 20 17
20 -15 20 l-33 0 23 25 23 25 -29 1 c-27 0 -27 1 11 14 l40 13 -39 1 c-33 1
-37 3 -26 16 7 8 9 16 4 16 -5 1 5 5 21 9 l30 8 -28 1 c-20 1 -27 6 -25 18 2
11 -6 19 -21 23 -24 6 -24 6 9 22 29 14 32 18 17 24 -10 4 -23 2 -30 -5 -6 -6
-15 -11 -19 -11 -14 0 -9 22 9 35 21 15 9 35 -17 28 -11 -3 -20 0 -20 6 0 6
14 11 30 11 24 0 30 -4 30 -22 0 -16 3 -19 11 -11 14 14 2 53 -16 53 -26 0
-27 21 0 46 29 26 26 45 -5 37 -15 -4 -20 0 -20 17 0 17 -4 20 -21 15 -16 -5
-20 -3 -16 6 2 8 10 13 17 11 17 -4 40 17 40 37 0 18 -33 51 -51 51 -6 0 -18
7 -26 16 -13 12 -13 18 -4 24 7 4 12 16 11 26 -4 36 0 44 25 44 14 0 25 5 25
11 0 7 -10 9 -25 7 -18 -4 -25 -1 -25 11 0 9 -9 34 -20 56 -24 48 -24 45 1 45
16 0 19 4 13 22 -6 21 -6 21 10 5 10 -9 21 -17 26 -17 8 0 24 69 18 76 -2 2
-16 -3 -31 -11 -15 -8 -29 -10 -32 -4 -4 5 1 9 9 9 11 0 16 10 16 33 0 24 -3
28 -10 17 -6 -9 -10 -10 -10 -3 0 6 8 19 17 29 16 16 16 16 -5 10 -25 -8 -29
5 -8 27 10 9 14 35 13 85 -2 61 -5 72 -19 72 -10 0 -18 3 -18 8 0 12 51 31 67
25 10 -4 14 -2 11 7 -6 20 -24 23 -39 7 -8 -8 -21 -12 -31 -9 -10 2 -18 -1
-18 -7 0 -6 -4 -11 -10 -11 -5 0 -10 10 -10 21 0 16 5 20 19 16 10 -2 25 -1
32 4 12 8 11 11 -1 20 -11 8 -12 12 -2 16 20 8 14 43 -8 43 -16 0 -20 7 -20
30 0 24 4 30 21 30 15 0 19 -4 14 -19 -7 -23 13 -39 21 -17 3 9 -3 35 -15 58
-12 26 -19 54 -16 70 3 15 1 30 -5 33 -5 3 -10 13 -10 22 0 13 3 13 15 3 13
-11 15 -8 15 13 0 14 5 27 12 29 9 3 9 6 1 11 -7 5 -17 -1 -23 -13 -15 -28
-30 -25 -30 5 0 14 3 25 8 25 11 0 32 51 32 77 0 14 6 23 15 23 18 0 20 20 3
20 -7 1 -2 7 12 15 21 12 22 14 6 15 -15 0 -16 3 -6 15 10 12 9 15 -6 16 -11
1 -21 1 -24 1 -3 0 -7 9 -7 21 -2 20 -1 20 8 5 15 -27 27 -21 38 19 8 27 7 39
-1 45 -7 4 -9 10 -6 14 8 7 32 -14 39 -35 3 -7 5 13 6 45 0 34 -2 51 -6 40 -5
-14 -10 -16 -15 -8 -8 13 0 32 15 32 14 0 50 40 45 49 -3 4 4 15 15 25 13 11
18 23 14 36 -4 12 -2 20 4 20 6 0 11 -6 12 -12 1 -7 4 -2 8 12 5 14 4 29 -1
35 -14 16 -9 28 7 15 18 -15 45 2 45 30 0 10 7 20 15 24 22 8 18 26 -5 26 -16
0 -20 7 -20 30 0 27 -2 30 -25 24 -15 -4 -25 -2 -25 5 0 6 -7 11 -16 11 -9 0
-22 8 -29 17 -11 15 -16 16 -38 4 -24 -13 -41 -12 -77 3 -9 4 -20 -1 -26 -11z
m-94 -37 c0 -3 -4 -8 -10 -11 -5 -3 -10 -1 -10 4 0 6 5 11 10 11 6 0 10 -2 10
-4z m215 -255 c3 -5 1 -12 -5 -16 -5 -3 -10 1 -10 9 0 18 6 21 15 7z m-127
-559 c2 -7 -3 -12 -12 -12 -9 0 -16 7 -16 16 0 17 22 14 28 -4z m-21 -58 c-3
-3 -12 -4 -19 -1 -8 3 -5 6 6 6 11 1 17 -2 13 -5z m40 0 c-3 -3 -12 -4 -19 -1
-8 3 -5 6 6 6 11 1 17 -2 13 -5z m-2 -94 c-3 -5 -13 -10 -21 -10 -8 0 -12 5
-9 10 3 6 13 10 21 10 8 0 12 -4 9 -10z m-50 -10 c3 -5 1 -10 -4 -10 -6 0 -11
5 -11 10 0 6 2 10 4 10 3 0 8 -4 11 -10z m-5 -121 c0 -6 -4 -7 -10 -4 -5 3
-10 11 -10 16 0 6 5 7 10 4 6 -3 10 -11 10 -16z m60 -23 c0 -8 -4 -18 -10 -21
-5 -3 -10 3 -10 14 0 12 5 21 10 21 6 0 10 -6 10 -14z m-60 -11 c0 -8 -2 -15
-4 -15 -2 0 -6 7 -10 15 -3 8 -1 15 4 15 6 0 10 -7 10 -15z m25 -375 c3 -5 1
-10 -4 -10 -6 0 -11 5 -11 10 0 6 2 10 4 10 3 0 8 -4 11 -10z m-911 -86 c3 -8
2 -12 -4 -9 -6 3 -10 10 -10 16 0 14 7 11 14 -7z m356 6 c0 -5 -4 -10 -9 -10
-6 0 -13 5 -16 10 -3 6 1 10 9 10 9 0 16 -4 16 -10z m-185 -18 c-3 -3 -11 0
-18 7 -9 10 -8 11 6 5 10 -3 15 -9 12 -12z m62 2 c-3 -3 -12 -4 -19 -1 -8 3
-5 6 6 6 11 1 17 -2 13 -5z m3 -54 c0 -11 -4 -20 -9 -20 -5 0 -7 9 -4 20 3 11
7 20 9 20 2 0 4 -9 4 -20z m-30 -16 c0 -2 -7 -4 -15 -4 -8 0 -15 4 -15 10 0 5
7 7 15 4 8 -4 15 -8 15 -10z m-23 -20 c-3 -3 -12 -4 -19 -1 -8 3 -5 6 6 6 11
1 17 -2 13 -5z m58 -24 c0 -8 -8 -15 -18 -16 -12 -1 -13 -1 -2 3 20 6 19 20
-2 27 -14 4 -14 4 2 3 11 -1 20 -9 20 -17z m750 1 c3 -5 1 -12 -5 -16 -5 -3
-10 1 -10 9 0 18 6 21 15 7z m-1025 -21 c0 -5 -4 -10 -10 -10 -5 0 -10 5 -10
10 0 6 5 10 10 10 6 0 10 -4 10 -10z m217 -6 c-3 -3 -12 -4 -19 -1 -8 3 -5 6
6 6 11 1 17 -2 13 -5z m753 -8 c0 -2 -7 -7 -16 -10 -8 -3 -12 -2 -9 4 6 10 25
14 25 6z m-1036 -21 c-4 -8 -10 -15 -15 -15 -5 0 -9 7 -9 15 0 8 7 15 15 15 9
0 12 -6 9 -15z m126 5 c0 -5 -2 -10 -4 -10 -3 0 -8 5 -11 10 -3 6 -1 10 4 10
6 0 11 -4 11 -10z m97 -7 c2 -5 -10 -10 -27 -10 -19 0 -30 5 -30 14 0 16 52
13 57 -4z m41 -40 c-11 -14 5 -18 52 -14 24 2 24 2 6 -12 -31 -23 -69 -7 -77
31 -8 38 -1 48 17 24 9 -12 9 -21 2 -29z m156 27 c-6 -6 -19 -7 -30 -3 -17 6
-17 8 6 13 29 8 38 4 24 -10z m-84 -16 c0 -8 -5 -12 -10 -9 -6 4 -8 11 -5 16
9 14 15 11 15 -7z m750 -4 c0 -5 -4 -10 -10 -10 -5 0 -10 5 -10 10 0 6 5 10
10 10 6 0 10 -4 10 -10z m-904 -15 c-3 -8 0 -15 7 -15 7 0 23 -9 36 -19 l24
-19 -36 -13 c-21 -7 -37 -18 -37 -23 0 -6 -6 -4 -12 3 -10 11 -10 14 0 18 14
5 17 43 3 43 -5 0 -7 9 -4 20 3 11 10 20 15 20 6 0 8 -7 4 -15z m242 -18 c1
-39 -11 -62 -28 -52 -10 6 -9 11 5 22 18 13 18 13 -1 28 -17 13 -17 14 -1 15
9 0 17 5 17 10 0 26 7 6 8 -23z m-458 13 c0 -5 -2 -10 -4 -10 -3 0 -8 5 -11
10 -3 6 -1 10 4 10 6 0 11 -4 11 -10z m160 0 c0 -5 -5 -10 -11 -10 -5 0 -7 5
-4 10 3 6 8 10 11 10 2 0 4 -4 4 -10z m1007 -6 c-3 -3 -12 -4 -19 -1 -8 3 -5
6 6 6 11 1 17 -2 13 -5z m-1027 -19 c7 -8 8 -15 2 -15 -5 0 -15 7 -22 15 -7 8
-8 15 -2 15 5 0 15 -7 22 -15z m245 -5 c3 -5 1 -10 -4 -10 -6 0 -11 5 -11 10
0 6 2 10 4 10 3 0 8 -4 11 -10z m-60 -20 c-3 -5 -13 -10 -21 -10 -8 0 -14 5
-14 10 0 6 9 10 21 10 11 0 17 -4 14 -10z m185 -10 c0 -5 -7 -10 -16 -10 -8 0
-12 5 -9 10 3 6 10 10 16 10 5 0 9 -4 9 -10z m-134 -24 c8 -8 14 -23 14 -34 0
-20 18 -32 46 -32 8 0 14 8 14 18 0 12 2 14 8 4 10 -15 3 -72 -9 -72 -14 0
-20 18 -7 24 7 3 3 3 -9 0 -40 -9 -63 4 -63 37 0 16 -4 29 -8 29 -4 0 -8 9 -8
20 0 24 3 25 22 6z m82 -10 c-9 -9 -18 -10 -35 -2 l-23 11 28 6 c34 7 45 2 30
-15z m-128 -5 c0 -16 -18 -31 -36 -31 -14 0 -1 30 14 31 14 0 14 2 -3 9 -19 8
-19 9 3 9 15 1 22 -5 22 -18z m-140 -1 c0 -5 -2 -10 -4 -10 -3 0 -8 5 -11 10
-3 6 -1 10 4 10 6 0 11 -4 11 -10z m70 -30 c0 -22 -4 -40 -10 -40 -5 0 -10 18
-10 40 0 22 5 40 10 40 6 0 10 -18 10 -40z m288 -18 c-10 -2 -18 -9 -18 -15 0
-8 -4 -7 -9 2 -5 8 -7 20 -4 27 4 11 9 11 26 2 19 -11 20 -13 5 -16z m562 13
c0 -8 -4 -15 -10 -15 -5 0 -10 7 -10 15 0 8 5 15 10 15 6 0 10 -7 10 -15z
m-752 -13 c3 -9 -2 -13 -14 -10 -9 1 -19 9 -22 16 -3 9 2 13 14 10 9 -1 19 -9
22 -16z m-42 -28 c14 -21 15 -27 4 -34 -11 -7 -11 -11 -1 -24 11 -13 11 -16
-3 -16 -9 0 -16 3 -17 8 0 4 -2 26 -5 50 -5 49 -1 52 22 16z m44 -4 c0 -5 8
-7 18 -3 16 6 16 5 0 -14 -10 -11 -18 -25 -18 -31 0 -14 43 -26 69 -19 10 2
25 1 32 -4 10 -6 11 -9 2 -9 -7 0 -13 -6 -13 -14 0 -9 8 -12 25 -8 14 2 25 0
25 -6 0 -5 -11 -12 -25 -15 -18 -3 -29 1 -36 14 -12 24 -45 24 -59 2 -10 -15
-11 -14 -7 10 2 15 0 27 -4 27 -5 0 -9 -7 -9 -15 0 -8 -7 -15 -15 -15 -17 0
-20 16 -5 25 8 5 7 11 -1 21 -8 10 -8 18 0 27 8 10 7 17 -1 25 -9 9 -8 12 5
12 9 0 17 -4 17 -10z m140 -22 c0 -7 -5 -20 -10 -28 -8 -12 -10 -9 -10 13 0
15 5 27 10 27 6 0 10 -6 10 -12z m30 -38 c0 -11 -4 -20 -9 -20 -5 0 -7 9 -4
20 3 11 7 20 9 20 2 0 4 -9 4 -20z m640 0 c0 -5 -5 -10 -11 -10 -5 0 -7 5 -4
10 3 6 8 10 11 10 2 0 4 -4 4 -10z m-545 -70 c3 -5 1 -10 -4 -10 -6 0 -11 5
-11 10 0 6 2 10 4 10 3 0 8 -4 11 -10z m142 -292 c-3 -8 -6 -5 -6 6 -1 11 2
17 5 13 3 -3 4 -12 1 -19z m113 -68 c0 -5 -5 -10 -11 -10 -5 0 -7 5 -4 10 3 6
8 10 11 10 2 0 4 -4 4 -10z m330 -20 c0 -5 -4 -10 -10 -10 -5 0 -10 5 -10 10
0 6 5 10 10 10 6 0 10 -4 10 -10z m25 -40 c-3 -5 -13 -10 -21 -10 -8 0 -12 5
-9 10 3 6 13 10 21 10 8 0 12 -4 9 -10z m-235 -10 c0 -5 -4 -10 -10 -10 -5 0
-10 5 -10 10 0 6 5 10 10 10 6 0 10 -4 10 -10z m227 -66 c-3 -3 -12 -4 -19 -1
-8 3 -5 6 6 6 11 1 17 -2 13 -5z"/>
<path d="M12840 19650 c-12 -7 -13 -15 -4 -38 8 -20 8 -35 1 -47 -5 -10 -7
-48 -3 -91 6 -70 5 -75 -18 -99 -32 -32 -36 -50 -14 -67 15 -11 16 -23 8 -93
-5 -44 -10 -96 -11 -115 0 -19 -6 -66 -12 -104 -10 -63 -9 -70 8 -82 26 -19
15 -26 -58 -33 -58 -6 -115 -30 -118 -49 -9 -54 -7 -60 17 -66 29 -8 27 -27
-3 -41 -40 -17 -56 -79 -26 -100 16 -12 16 -14 -2 -31 -18 -19 -18 -19 8 -22
36 -4 37 -39 3 -48 -37 -9 -38 -46 -3 -61 27 -12 27 -13 11 -38 -9 -14 -25
-25 -35 -25 -23 0 -30 -13 -34 -58 -1 -20 -7 -64 -14 -97 -16 -87 -15 -95 14
-95 35 0 31 -13 -7 -28 -33 -12 -30 -26 7 -35 17 -4 15 -6 -12 -16 -25 -10
-32 -19 -36 -49 -5 -40 -15 -103 -22 -139 -3 -19 2 -23 31 -29 43 -8 43 -19
-1 -34 -39 -13 -45 -26 -15 -35 23 -7 27 -35 5 -35 -22 0 -18 -31 5 -37 12 -3
20 -14 20 -28 0 -27 -29 -87 -47 -98 -19 -12 -16 -22 12 -35 14 -6 24 -17 23
-24 -2 -7 13 -14 37 -18 48 -7 65 -16 65 -36 0 -16 16 -19 25 -4 10 16 22 12
27 -8 4 -14 25 -23 82 -35 93 -21 91 -21 109 -2 26 26 2 81 -46 104 -22 11
-45 17 -51 13 -12 -7 -55 -4 -70 6 -5 3 -1 11 8 18 16 11 14 15 -20 47 l-38
34 47 21 c37 17 46 25 40 39 -4 14 -3 15 6 7 15 -14 51 -7 51 10 0 7 4 6 9 -2
7 -11 14 -11 42 3 19 10 36 21 39 24 3 4 17 12 33 18 23 11 27 19 27 52 0 28
-5 43 -17 50 -17 9 -17 11 -1 23 13 9 19 34 23 91 3 42 1 77 -3 77 -27 0 -76
-90 -67 -121 6 -19 -9 -27 -19 -11 -10 16 50 177 68 180 19 4 22 48 4 55 -10
3 -10 9 -1 28 6 13 14 60 16 103 4 68 2 77 -9 61 -40 -54 -66 -201 -41 -232 7
-10 4 -13 -10 -13 -31 0 -29 92 4 224 25 101 26 109 10 121 -16 11 -16 15 -2
41 20 38 19 71 -2 82 -14 9 -15 15 -4 63 7 30 14 72 15 94 1 22 5 47 8 55 4 8
9 37 11 64 4 42 2 49 -15 54 -13 3 -17 10 -12 21 3 9 8 31 11 50 2 19 8 42 14
52 7 13 6 26 -2 40 -9 17 -6 44 11 126 21 100 21 141 0 128 -6 -3 -8 15 -6 47
2 29 7 106 11 171 l8 117 -44 0 c-24 0 -51 -5 -59 -10z m-65 -887 c-2 -49 -6
-109 -8 -135 -3 -35 0 -48 10 -48 19 0 16 -23 -5 -36 -14 -9 -22 -8 -36 2 -17
12 -17 14 -2 36 20 29 22 127 2 154 -13 16 -13 21 0 35 9 10 16 31 16 48 1 19
6 31 14 31 11 0 13 -19 9 -87z m14 -292 c12 -8 12 -13 -3 -36 -18 -28 -33 -29
-50 -3 -7 12 -6 21 3 32 15 18 29 20 50 7z m-53 -276 c-3 -9 0 -15 9 -15 19 0
29 -20 17 -32 -8 -8 -15 -8 -24 0 -17 13 -22 62 -7 62 6 0 9 -7 5 -15z m14
-105 c0 -5 -2 -10 -4 -10 -3 0 -8 5 -11 10 -3 6 -1 10 4 10 6 0 11 -4 11 -10z
m30 -231 c0 -5 -9 -9 -20 -9 -19 0 -26 11 -14 23 8 8 34 -3 34 -14z m100 -44
c0 -8 -7 -15 -15 -15 -8 0 -15 7 -15 15 0 8 7 15 15 15 8 0 15 -7 15 -15z"/>
<path d="M12740 19640 c0 -5 11 -10 25 -10 14 0 25 5 25 10 0 6 -11 10 -25 10
-14 0 -25 -4 -25 -10z"/>
<path d="M12742 19561 c-15 -9 -45 -232 -35 -257 3 -8 1 -20 -4 -27 -6 -6 -11
-37 -11 -67 -1 -90 -8 -170 -15 -177 -4 -3 -7 -22 -7 -40 0 -19 -4 -43 -10
-53 -7 -14 -6 -23 6 -34 19 -19 35 -20 56 -3 16 12 32 139 20 152 -10 9 -2
145 10 187 8 28 8 41 -1 52 -15 18 -4 66 15 66 12 0 14 19 12 102 -3 99 -9
116 -36 99z"/>
<path d="M12981 19477 c-22 -58 -24 -77 -7 -77 10 0 16 8 16 21 0 11 4 28 9
38 6 10 6 23 1 31 -7 11 -11 8 -19 -13z"/>
<path d="M13681 19484 c0 -11 3 -14 6 -6 3 7 2 16 -1 19 -3 4 -6 -2 -5 -13z"/>
<path d="M15680 19481 c-49 -15 -90 -42 -143 -94 -90 -87 -137 -202 -137 -331
0 -87 15 -160 31 -151 5 4 9 1 9 -4 0 -6 20 -11 46 -11 32 0 43 -3 38 -12 -5
-7 -3 -8 5 -4 7 5 45 10 84 11 84 4 129 13 139 29 6 8 8 8 8 -1 0 -6 8 -9 19
-6 10 3 28 0 40 -6 17 -9 21 -9 21 3 0 7 7 17 16 20 23 9 31 7 14 -4 -12 -7
-12 -12 -3 -21 18 -18 61 4 74 38 6 16 18 36 26 45 9 10 13 18 10 18 -3 0 0
17 7 38 18 50 13 200 -9 272 -22 71 -74 138 -126 162 -42 18 -123 23 -169 9z"/>
<path d="M9730 19184 c0 -8 5 -12 10 -9 6 4 8 11 5 16 -9 14 -15 11 -15 -7z"/>
<path d="M12966 19005 c-15 -22 -15 -27 -2 -40 12 -12 14 -9 19 23 5 47 4 49
-17 17z"/>
<path d="M9680 18994 c0 -17 22 -14 28 4 2 7 -3 12 -12 12 -9 0 -16 -7 -16
-16z"/>
<path d="M9686 18884 c-9 -24 -7 -28 9 -14 17 14 20 30 6 30 -5 0 -12 -7 -15
-16z"/>
<path d="M9680 18816 c0 -9 7 -16 16 -16 9 0 14 5 12 12 -6 18 -28 21 -28 4z"/>
<path d="M12933 18661 c-11 -18 -7 -61 6 -61 3 0 7 18 8 40 3 46 2 47 -14 21z"/>
<path d="M13597 18339 c-12 -7 -17 -23 -17 -54 0 -43 -1 -43 -40 -50 -35 -6
-41 -11 -49 -43 -5 -21 -13 -87 -16 -147 -6 -93 -5 -113 8 -123 9 -7 21 -12
29 -11 7 1 20 1 28 0 17 -1 3 -18 -32 -35 -12 -6 -24 -20 -26 -29 -3 -16 3
-18 50 -15 l53 3 -2 39 c-2 22 2 44 7 51 10 12 35 242 39 352 2 65 -4 77 -32
62z"/>
<path d="M9680 18136 c0 -9 7 -16 16 -16 17 0 14 22 -4 28 -7 2 -12 -3 -12
-12z"/>
<path d="M9713 18043 c9 -2 23 -2 30 0 6 3 -1 5 -18 5 -16 0 -22 -2 -12 -5z"/>
<path d="M9785 17771 c-3 -5 -1 -12 5 -16 5 -3 10 1 10 9 0 18 -6 21 -15 7z"/>
<path d="M11767 17706 c-10 -21 -26 -40 -36 -43 -21 -5 -31 -41 -31 -112 l0
-46 39 43 c42 45 56 93 49 161 l-3 34 -18 -37z"/>
<path d="M8655 17700 c-10 -17 12 -37 25 -24 8 8 6 15 -4 23 -10 9 -16 9 -21
1z"/>
<path d="M12953 17575 c-35 -15 -42 -35 -19 -54 19 -16 44 -4 61 30 8 15 15
30 15 34 0 9 -23 5 -57 -10z"/>
<path d="M8760 17560 c19 -13 30 -13 30 0 0 6 -10 10 -22 10 -19 0 -20 -2 -8
-10z"/>
<path d="M9805 17540 c3 -5 8 -10 11 -10 2 0 4 5 4 10 0 6 -5 10 -11 10 -5 0
-7 -4 -4 -10z"/>
<path d="M13190 17530 c-38 -5 -38 -4 -23 -90 l8 -45 14 48 c8 26 20 51 28 56
29 16 10 36 -27 31z"/>
<path d="M12200 17372 c0 -22 118 -100 180 -120 166 -54 199 -55 245 -12 28
26 49 26 42 0 -7 -27 3 -31 46 -19 44 12 51 22 35 49 -10 16 -23 20 -61 20
-26 0 -81 9 -123 20 -46 12 -101 20 -137 18 -34 -1 -71 4 -82 10 -25 14 -111
42 -130 42 -8 0 -15 -4 -15 -8z"/>
<path d="M11756 17328 c-9 -29 -16 -130 -10 -154 6 -22 10 -24 43 -18 41 8 41
8 96 -2 22 -4 37 -4 33 0 -3 4 -2 21 2 37 5 18 5 27 -1 24 -5 -4 -12 1 -15 9
-3 8 -21 21 -40 28 -19 6 -34 16 -34 21 0 5 -11 7 -25 4 -24 -4 -26 -2 -23 26
3 30 -18 51 -26 25z"/>
<path d="M11988 17283 c0 -10 -2 -24 -2 -31 -1 -8 -9 -20 -19 -27 -18 -13 -18
-14 2 -24 27 -15 30 -14 24 9 -4 17 0 20 25 20 43 0 68 10 50 21 -11 8 -11 11
1 18 11 7 10 11 -7 20 -32 17 -72 14 -74 -6z"/>
<path d="M11254 17240 c14 -68 48 -164 86 -244 47 -97 79 -150 86 -143 3 3 -1
15 -8 26 -11 18 -11 23 2 31 8 5 20 9 25 9 6 0 4 -3 -2 -6 -16 -6 -17 -33 -3
-33 6 0 13 7 16 15 4 8 10 12 16 9 5 -3 4 -12 -3 -20 -17 -21 -3 -29 17 -10
15 16 15 18 0 35 -15 16 -15 19 -1 24 20 8 19 33 -2 41 -14 6 -14 8 -1 19 23
18 29 44 12 57 -21 19 -17 32 9 25 18 -6 20 -5 10 6 -7 7 -13 19 -13 26 0 18
-39 55 -50 48 -5 -3 -11 -1 -15 5 -7 12 -60 36 -97 44 -14 3 -41 20 -58 38
l-32 32 6 -34z m186 -270 c0 -5 7 -10 16 -10 8 0 12 -4 9 -10 -9 -15 -19 -12
-33 10 -7 12 -8 20 -2 20 5 0 10 -4 10 -10z m-20 -41 c0 -6 -4 -7 -10 -4 -5 3
-10 11 -10 16 0 6 5 7 10 4 6 -3 10 -11 10 -16z"/>
<path d="M12155 17240 c5 -14 2 -20 -9 -20 -9 0 -16 5 -16 10 0 6 -6 10 -13
10 -7 0 -13 -8 -13 -19 0 -16 9 -18 69 -19 l70 -2 -23 20 c-13 11 -29 20 -37
20 -7 0 -13 5 -13 10 0 6 -5 10 -11 10 -6 0 -8 -9 -4 -20z"/>
<path d="M9825 17229 c-4 -6 -5 -13 -2 -16 7 -7 27 6 27 18 0 12 -17 12 -25
-2z"/>
<path d="M12020 17210 c0 -5 5 -10 11 -10 5 0 7 5 4 10 -3 6 -8 10 -11 10 -2
0 -4 -4 -4 -10z"/>
<path d="M9840 17170 c0 -5 5 -10 11 -10 5 0 7 5 4 10 -3 6 -8 10 -11 10 -2 0
-4 -4 -4 -10z"/>
<path d="M9840 17135 c0 -9 5 -15 11 -13 6 2 11 8 11 13 0 5 -5 11 -11 13 -6
2 -11 -4 -11 -13z"/>
<path d="M11270 16942 c0 -5 7 -15 15 -22 8 -7 15 -9 15 -6 0 4 -7 14 -15 22
-8 9 -15 11 -15 6z"/>
<path d="M9785 16900 c3 -5 10 -10 16 -10 5 0 9 5 9 10 0 6 -7 10 -16 10 -8 0
-12 -4 -9 -10z"/>
<path d="M18395 16511 c-2 -4 36 -38 86 -74 l90 -66 87 6 c48 3 89 7 91 9 6 6
-21 25 -110 79 -71 43 -81 46 -157 50 -45 2 -84 0 -87 -4z"/>
<path d="M12420 16441 c0 -5 7 -11 15 -15 8 -3 15 -12 15 -19 0 -34 66 -55
102 -33 15 9 12 13 -23 29 -22 10 -43 16 -48 13 -5 -3 -16 3 -26 14 -19 21
-35 26 -35 11z"/>
<path d="M9380 14400 c-293 -50 -611 -274 -786 -555 -10 -16 -21 -32 -24 -35
-6 -6 -37 -71 -68 -140 -44 -99 -91 -279 -92 -348 0 -45 16 -32 18 13 2 52 30
160 59 230 14 33 32 77 41 98 8 20 18 37 22 37 7 0 23 38 21 52 0 3 6 12 14
18 8 7 15 18 15 25 0 6 9 20 20 30 11 10 17 22 14 26 -3 5 -1 9 5 9 6 0 17 13
26 29 21 42 226 244 287 283 166 108 302 156 468 165 357 19 659 -209 783
-592 49 -151 58 -188 64 -257 5 -52 9 -68 19 -64 8 3 14 0 14 -6 0 -6 3 -9 6
-5 9 8 -7 137 -16 132 -5 -3 -11 -1 -15 5 -3 5 1 10 10 10 10 0 15 6 12 13 -2
6 -12 46 -21 87 -26 115 -75 267 -105 324 -61 114 -149 218 -246 289 -152 111
-358 159 -545 127z m920 -946 c0 -8 -4 -14 -10 -14 -5 0 -10 9 -10 21 0 11 5
17 10 14 6 -3 10 -13 10 -21z"/>
<path d="M19764 13878 c-260 -14 -633 -99 -851 -194 -32 -14 -80 -35 -108 -47
-238 -102 -546 -294 -810 -506 -552 -443 -1056 -1087 -1428 -1824 -418 -827
-655 -1679 -739 -2652 -18 -219 -16 -782 6 -1015 62 -688 198 -1205 462 -1758
100 -210 283 -500 416 -658 274 -328 532 -535 873 -704 190 -94 324 -140 523
-180 145 -29 392 -51 497 -44 28 1 95 6 150 9 55 4 151 15 214 26 151 25 446
108 536 149 11 5 49 21 85 35 95 39 272 126 267 132 -3 2 -38 -11 -79 -30
-204 -98 -467 -185 -697 -232 -338 -68 -737 -59 -1065 25 -167 43 -429 154
-556 236 -69 44 -74 47 -111 71 -19 12 -39 26 -44 31 -6 5 -24 17 -40 28 -17
10 -34 24 -38 31 -4 7 -13 13 -19 13 -11 0 -155 125 -203 177 -17 18 -37 33
-44 33 -8 0 -11 3 -8 7 4 3 -2 12 -13 20 -11 8 -20 20 -20 27 0 7 -12 18 -26
25 -15 6 -24 14 -21 17 3 3 -7 19 -21 36 -15 17 -36 40 -47 53 -46 51 -65 76
-65 84 0 5 -7 15 -16 22 -24 19 -197 288 -202 312 0 4 -10 19 -22 34 -11 14
-20 31 -20 39 0 7 -3 14 -7 16 -5 2 -24 35 -43 73 -19 39 -38 72 -42 73 -5 2
-8 8 -8 14 0 5 -18 47 -40 93 -22 46 -40 86 -40 90 0 3 -11 31 -25 61 -14 30
-25 57 -25 61 0 9 -49 134 -60 155 -6 10 -10 24 -10 31 0 8 -14 56 -31 108
-17 52 -35 112 -40 134 -5 22 -11 45 -13 50 -2 6 -7 29 -11 52 -4 24 -11 43
-16 43 -5 0 -9 9 -9 21 0 11 -8 55 -19 97 -10 43 -24 111 -31 152 -6 41 -14
86 -17 100 -3 14 -7 32 -8 40 -10 78 -17 115 -20 120 -2 3 -11 73 -19 155 -9
83 -19 166 -22 185 -2 19 -7 71 -9 115 -3 44 -7 96 -10 115 -6 44 -6 435 0
590 8 214 19 375 24 375 1 0 4 32 7 70 4 65 12 130 34 280 5 33 12 78 15 100
3 22 12 74 20 115 39 203 85 410 115 515 6 22 17 65 25 95 7 30 20 75 29 100
8 25 40 122 70 215 64 198 115 344 140 400 40 90 46 106 46 119 0 8 7 19 15
26 8 7 15 23 15 36 0 13 4 24 9 24 5 0 12 11 15 24 7 29 97 226 135 296 5 8
18 36 30 62 12 26 26 50 32 53 5 4 9 14 9 24 0 10 11 34 23 53 13 19 39 63 57
99 19 35 47 83 62 106 15 23 28 45 28 48 0 4 18 32 40 64 22 31 40 60 40 65 0
4 11 22 25 40 14 18 25 37 25 43 0 6 11 22 25 37 17 19 24 35 20 49 -2 12 -2
16 1 9 4 -10 11 -7 22 10 9 13 16 26 14 31 -1 4 6 7 16 7 12 0 14 2 4 8 -9 7
-8 13 8 27 20 18 21 18 15 -1 -4 -10 3 -3 13 16 11 19 18 38 15 42 -2 5 1 8 6
8 6 0 11 6 11 14 0 8 9 17 19 21 13 4 17 12 13 27 -3 14 -1 19 6 14 12 -7 52
39 52 60 0 8 5 14 10 14 6 0 10 7 10 15 0 8 9 19 20 25 11 6 20 17 20 24 0 7
16 29 35 49 19 20 35 41 35 47 0 5 7 10 15 10 9 0 20 11 25 25 5 14 14 25 20
25 6 0 15 11 20 25 6 15 15 23 23 19 12 -4 22 10 31 47 3 13 161 157 168 153
4 -3 8 1 8 10 0 8 15 30 34 49 19 20 31 39 28 43 -4 4 -2 4 4 1 6 -3 26 9 44
28 18 19 36 32 39 30 4 -2 17 12 30 31 13 19 28 34 33 34 5 0 24 15 42 33 18
17 40 37 49 42 8 6 97 72 196 148 99 75 185 137 191 137 5 0 10 4 10 9 0 5 10
11 23 15 12 3 33 16 47 28 14 13 29 22 34 20 5 -2 12 1 15 5 3 5 27 20 54 33
26 14 47 28 47 31 0 4 7 10 16 13 9 3 12 2 8 -5 -3 -6 11 0 32 13 22 13 54 30
71 37 18 7 30 18 26 24 -4 6 4 8 21 3 15 -4 25 -3 23 2 -4 6 121 62 153 68 3
0 13 4 23 7 9 4 25 10 35 14 9 3 19 7 22 8 3 1 12 5 20 8 59 25 293 77 480
107 111 18 427 24 521 11 187 -27 371 -71 564 -137 564 -190 1030 -573 1386
-1136 126 -200 292 -513 305 -576 1 -7 11 -32 21 -55 11 -23 25 -61 33 -85 7
-23 15 -40 18 -38 15 16 -223 596 -258 626 -3 3 -11 19 -18 35 -11 25 -48 88
-115 200 -24 39 -160 240 -166 245 -4 3 -41 48 -83 100 -93 116 -293 315 -408
406 -293 232 -631 389 -1010 468 -173 36 -341 46 -566 34z"/>
<path d="M2830 13524 c-70 -43 -120 -169 -120 -299 0 -81 14 -145 31 -145 4 0
6 -7 3 -15 -5 -11 1 -15 18 -15 14 0 36 -12 51 -27 64 -67 103 -91 120 -74 16
16 -35 127 -53 116 -5 -3 -11 9 -15 26 -5 22 -2 36 11 50 16 18 16 24 4 57 -7
20 -20 43 -29 50 -14 11 -14 13 4 27 11 9 26 13 34 10 8 -3 18 0 22 7 7 11 12
11 30 0 11 -7 24 -10 27 -6 4 4 1 9 -5 11 -7 3 -13 16 -13 29 0 30 29 44 42
21 16 -29 30 -19 23 16 -13 66 -53 131 -94 155 -47 26 -58 27 -91 6z"/>
<path d="M10280 13336 c0 -29 15 -43 24 -20 3 8 -1 22 -9 30 -13 14 -15 13
-15 -10z"/>
<path d="M2880 13255 c0 -8 5 -15 10 -15 18 0 31 -49 19 -72 -9 -17 -7 -28 10
-58 12 -21 18 -45 15 -54 -5 -12 0 -16 17 -16 13 0 31 5 39 10 13 8 12 13 -4
41 -17 29 -17 32 -2 41 9 5 16 14 16 19 0 6 -5 7 -10 4 -13 -8 -40 13 -40 31
0 19 52 52 58 36 7 -23 22 -12 22 18 0 26 -4 30 -28 30 -15 0 -33 -5 -40 -12
-9 -9 -18 -9 -37 0 -34 16 -45 15 -45 -3z"/>
<path d="M8401 13143 c-1 -68 2 -123 7 -123 7 0 5 214 -3 235 -2 6 -4 -45 -4
-112z"/>
<path d="M10287 13226 c-4 -10 -5 -21 -2 -24 9 -9 17 6 13 25 -3 17 -4 17 -11
-1z"/>
<path d="M10280 13175 c0 -8 5 -15 10 -15 6 0 10 7 10 15 0 8 -4 15 -10 15 -5
0 -10 -7 -10 -15z"/>
<path d="M10275 13060 c-4 -28 -5 -54 -2 -56 3 -3 8 18 12 46 4 28 5 54 2 56
-3 3 -8 -18 -12 -46z"/>
<path d="M8410 12976 c0 -2 7 -42 15 -90 72 -410 383 -805 737 -936 155 -56
355 -44 528 32 25 11 47 23 50 27 3 3 21 14 40 24 19 10 46 24 59 32 29 16
145 135 185 190 17 22 33 42 36 45 11 9 70 132 70 146 0 8 6 14 14 14 8 0 15
8 15 18 -1 28 6 49 21 67 7 9 13 29 13 46 0 16 4 29 9 29 4 0 8 9 8 20 0 11 4
20 9 20 6 0 10 8 9 18 0 21 37 196 44 208 3 5 2 27 -2 49 -7 36 -8 37 -9 10 0
-17 -12 -74 -26 -128 -13 -53 -26 -107 -28 -119 -2 -13 -9 -34 -15 -48 -6 -14
-25 -61 -42 -105 -82 -212 -242 -405 -401 -482 -110 -54 -192 -73 -313 -73
-110 0 -213 18 -305 55 -65 25 -139 65 -163 88 -7 6 -32 25 -54 40 -40 27
-138 122 -183 177 -61 75 -70 88 -65 93 3 3 -4 10 -15 17 -12 6 -21 17 -21 25
0 7 -7 21 -15 29 -9 9 -38 64 -65 123 -30 66 -56 109 -66 112 -10 2 -13 6 -6
10 8 4 7 15 -2 36 -16 37 -33 97 -41 148 -3 20 -10 37 -15 37 -6 0 -10 -2 -10
-4z"/>
<path d="M2773 12729 c53 -31 473 -156 485 -145 3 4 0 6 -6 6 -30 0 -52 40
-53 98 -1 33 -4 44 -6 27 -3 -16 -14 -42 -25 -58 -26 -37 -38 -35 -248 33
-162 52 -177 56 -147 39z"/>
<path d="M3318 12563 c7 -3 16 -2 19 1 4 3 -2 6 -13 5 -11 0 -14 -3 -6 -6z"/>
<path d="M3392 12545 c7 -8 198 -51 378 -86 243 -47 279 -57 378 -107 111 -55
188 -127 247 -227 39 -67 46 -83 85 -190 15 -41 19 -45 19 -22 1 36 -50 169
-90 232 -43 70 -163 184 -233 224 -63 35 -138 55 -336 91 -69 13 -196 38 -284
56 -168 36 -172 37 -164 29z"/>
<path d="M11648 12283 c7 -3 16 -2 19 1 4 3 -2 6 -13 5 -11 0 -14 -3 -6 -6z"/>
<path d="M11608 12193 c6 -2 18 -2 25 0 6 3 1 5 -13 5 -14 0 -19 -2 -12 -5z"/>
<path d="M11690 12191 c0 -5 5 -13 10 -16 6 -3 10 -2 10 4 0 5 -4 13 -10 16
-5 3 -10 2 -10 -4z"/>
<path d="M11730 12180 c0 -5 5 -10 10 -10 6 0 10 5 10 10 0 6 -4 10 -10 10 -5
0 -10 -4 -10 -10z"/>
<path d="M11570 12150 c0 -5 5 -10 10 -10 6 0 10 5 10 10 0 6 -4 10 -10 10 -5
0 -10 -4 -10 -10z"/>
<path d="M11634 12125 c-2 -26 11 -34 19 -12 3 9 7 9 17 0 7 -6 18 -9 25 -6
20 7 -14 43 -40 43 -14 0 -20 -7 -21 -25z"/>
<path d="M11710 12140 c0 -5 5 -10 10 -10 6 0 10 5 10 10 0 6 -4 10 -10 10 -5
0 -10 -4 -10 -10z"/>
<path d="M11602 12070 c0 -14 2 -19 5 -12 2 6 2 18 0 25 -3 6 -5 1 -5 -13z"/>
<path d="M11628 12078 c-6 -17 1 -38 13 -38 5 0 9 11 9 25 0 26 -14 34 -22 13z"/>
<path d="M11780 12080 c-13 -8 -12 -10 3 -10 9 0 17 5 17 10 0 12 -1 12 -20 0z"/>
<path d="M11673 12063 c-9 -23 -33 -42 -54 -43 -17 0 -32 -36 -23 -52 8 -13
69 -9 105 7 27 11 30 14 12 15 -12 0 -25 -4 -28 -10 -8 -13 -52 -13 -60 -1 -9
15 29 31 72 31 21 0 45 5 53 10 12 7 8 10 -15 10 -39 0 -64 15 -40 24 9 3 13
10 10 16 -10 15 -25 12 -32 -7z"/>
<path d="M11490 12060 c0 -5 7 -10 15 -10 8 0 15 5 15 10 0 6 -7 10 -15 10 -8
0 -15 -4 -15 -10z"/>
<path d="M11570 11935 c0 -8 7 -15 15 -15 24 0 18 -13 -29 -63 -36 -39 -49
-47 -80 -47 -26 0 -36 4 -36 16 0 8 -4 12 -10 9 -18 -11 -11 -35 10 -35 11 0
20 -5 20 -10 0 -6 8 -5 20 2 26 16 40 -3 37 -48 -2 -32 -14 -35 -44 -11 -9 7
-13 5 -13 -6 0 -9 -15 -20 -35 -27 -40 -13 -45 -26 -14 -35 14 -5 25 -2 30 6
7 11 9 10 9 -3 0 -9 8 -19 18 -21 9 -3 -2 -5 -24 -6 -23 0 -56 -4 -73 -7 -31
-6 -31 -6 -21 20 5 15 10 41 10 57 0 19 5 29 15 29 8 0 15 -4 15 -10 0 -5 11
-10 25 -10 18 0 26 7 31 26 9 34 -10 53 -36 36 -11 -6 -29 -12 -40 -12 -13 0
-20 -7 -20 -19 0 -25 -21 -32 -62 -21 -21 6 -36 6 -42 0 -7 -7 2 -10 26 -10
20 0 39 -6 41 -12 4 -10 8 -9 16 2 15 21 24 6 16 -29 -7 -31 -31 -58 -42 -47
-3 3 -2 6 4 6 6 0 9 9 6 20 -6 22 -23 27 -23 8 0 -7 -3 -23 -6 -34 -5 -20 -2
-22 33 -21 63 0 83 -3 83 -13 0 -6 -24 -7 -62 -4 -46 4 -59 3 -48 -5 8 -6 22
-8 32 -5 26 8 28 -9 6 -45 -15 -23 -26 -31 -40 -28 -17 5 -18 2 -12 -26 l6
-32 -23 21 c-36 32 -51 38 -47 21 2 -9 -1 -16 -7 -17 -5 0 -11 15 -13 35 -2
22 -10 39 -23 45 -20 11 -28 -3 -9 -15 6 -3 10 -19 10 -36 0 -16 -4 -29 -10
-29 -16 0 -11 -38 6 -48 11 -6 18 -27 21 -59 6 -55 -4 -69 -38 -58 -20 7 -21
12 -16 61 3 31 2 54 -4 54 -5 0 -9 7 -9 15 0 17 -16 20 -25 5 -3 -6 1 -13 9
-16 18 -7 22 -39 6 -49 -5 -3 -10 -16 -10 -28 0 -17 -2 -19 -9 -8 -5 8 -16 11
-25 8 -15 -6 -15 -9 0 -32 16 -24 15 -25 -7 -34 -13 -5 -27 -7 -30 -5 -4 2 -3
-13 1 -33 9 -39 -6 -62 -42 -63 -10 0 -18 -4 -18 -10 0 -13 27 -13 35 0 4 6
11 8 16 4 5 -3 6 -10 3 -16 -5 -7 -1 -9 9 -5 10 3 17 2 17 -3 0 -6 -9 -10 -20
-10 -14 0 -20 -6 -18 -17 2 -12 -4 -19 -19 -21 -15 -2 -23 2 -23 11 0 13 -4
13 -25 4 -31 -15 -32 -40 -2 -55 l22 -11 -22 0 c-13 -1 -23 -6 -23 -11 0 -17
31 -24 41 -9 6 11 11 11 20 2 10 -10 3 -17 -32 -32 -51 -24 -66 -26 -71 -9 -3
9 -6 9 -12 0 -4 -7 -2 -12 3 -12 6 0 11 -9 11 -20 0 -11 -7 -20 -15 -20 -8 0
-15 -7 -15 -15 0 -8 -7 -15 -15 -15 -17 0 -19 -9 -5 -30 8 -12 11 -12 28 3 10
9 22 14 25 10 15 -14 6 -29 -24 -40 -17 -7 -28 -17 -24 -22 3 -6 0 -11 -9 -11
-8 0 -17 -6 -19 -12 -4 -10 -6 -10 -6 0 -1 6 -5 12 -11 12 -5 0 -7 -7 -4 -15
4 -8 1 -15 -6 -15 -7 0 -10 -7 -6 -15 4 -11 -1 -15 -18 -15 -19 0 -23 -4 -19
-20 6 -24 19 -26 27 -5 9 23 28 18 24 -7 -2 -15 -10 -23 -23 -23 -17 0 -20 -7
-18 -43 2 -40 -9 -55 -21 -29 -3 6 -4 0 -1 -15 4 -23 1 -27 -25 -33 -38 -8
-48 -25 -21 -32 l22 -6 -21 -19 c-22 -21 -25 -39 -9 -55 8 -8 5 -14 -11 -23
-23 -12 -52 -69 -56 -109 -2 -13 -13 -34 -24 -47 l-22 -22 22 -4 c21 -3 21 -4
3 -23 -23 -26 -43 -66 -41 -85 3 -34 -3 -50 -18 -50 -12 0 -14 -3 -6 -13 8
-10 6 -16 -9 -25 -20 -13 -26 -42 -9 -42 6 0 9 -18 8 -40 -3 -39 -17 -57 -19
-22 0 13 -2 12 -9 -6 -6 -13 -6 -32 0 -47 7 -19 6 -27 -4 -31 -7 -3 -12 -15
-12 -27 1 -12 -2 -27 -6 -34 -5 -6 -5 -14 1 -17 13 -9 -10 -66 -27 -66 -9 0
-13 -11 -10 -37 2 -22 -2 -38 -10 -41 -8 -2 -10 -17 -7 -45 4 -33 3 -38 -5
-22 -8 15 -9 11 -4 -21 4 -31 2 -43 -9 -47 -16 -6 -11 -57 5 -57 6 0 3 -11 -6
-25 -9 -13 -16 -31 -16 -40 0 -9 -7 -18 -15 -21 -8 -4 -15 -12 -15 -20 0 -8 7
-14 15 -14 8 0 15 -7 15 -15 0 -8 -7 -15 -15 -15 -8 0 -15 -6 -15 -14 0 -8 -7
-22 -16 -31 -9 -8 -13 -23 -10 -32 4 -8 1 -22 -6 -31 -11 -13 -10 -14 10 -8
27 9 29 -4 4 -29 -11 -12 -16 -30 -14 -50 2 -19 -2 -38 -11 -47 -12 -11 -13
-18 -4 -27 8 -8 8 -14 -1 -23 -9 -9 -7 -14 6 -24 16 -12 15 -13 -6 -14 -19 0
-21 -4 -16 -25 4 -15 2 -25 -5 -25 -5 0 -15 -9 -20 -19 -9 -16 -8 -18 9 -14
23 6 26 -10 11 -51 -7 -17 -7 -26 2 -29 9 -3 9 -7 0 -17 -6 -7 -9 -18 -7 -25
3 -7 1 -16 -5 -19 -6 -4 -6 -18 -1 -36 5 -16 5 -32 1 -35 -5 -2 -8 -38 -7 -80
1 -50 -2 -75 -10 -75 -8 0 -9 -15 -3 -52 5 -30 5 -56 -1 -63 -5 -6 -7 -37 -4
-69 3 -38 1 -62 -6 -66 -7 -5 -8 -15 -1 -32 6 -16 6 -40 0 -64 -12 -53 -11
-111 2 -136 8 -15 8 -22 0 -28 -8 -5 -10 -40 -7 -116 3 -60 8 -201 12 -314 4
-113 8 -216 9 -230 1 -14 5 -65 9 -115 28 -354 98 -891 146 -1115 6 -25 17
-83 26 -130 8 -46 18 -88 21 -94 7 -10 12 -43 17 -96 2 -19 7 -43 11 -52 4 -9
4 -21 1 -27 -3 -5 1 -16 9 -24 8 -9 17 -39 19 -69 3 -29 10 -75 15 -103 6 -27
15 -86 21 -130 6 -44 15 -93 20 -109 6 -16 10 -40 10 -52 0 -17 6 -24 20 -24
23 0 24 6 5 40 -20 35 -19 40 11 40 25 0 25 -2 19 -40 -4 -26 -3 -40 4 -40 6
0 11 12 11 26 0 22 2 24 14 14 8 -6 12 -18 9 -26 -3 -9 5 -18 23 -26 28 -11
28 -12 6 -16 -12 -2 -20 -8 -17 -13 9 -14 41 -11 55 6 10 12 16 13 24 5 8 -8
6 -15 -8 -26 -11 -7 -17 -17 -13 -20 4 -4 2 -13 -4 -20 -7 -8 -7 -14 1 -19 5
-3 10 -16 10 -29 0 -19 5 -23 30 -23 17 0 36 -5 42 -11 9 -9 0 -12 -39 -12
-29 0 -54 -3 -56 -7 -3 -5 15 -6 39 -4 24 1 44 -1 44 -7 0 -5 12 -7 26 -4 19
3 25 1 20 -7 -4 -6 -15 -11 -24 -11 -13 -1 -10 -6 11 -25 15 -14 25 -25 21
-25 -4 0 1 -9 12 -21 15 -17 16 -23 5 -41 -9 -15 -10 -23 -2 -31 8 -8 11 -5
11 10 0 22 25 37 43 26 7 -4 4 -9 -8 -13 -14 -5 -20 -17 -21 -43 0 -21 3 -37
8 -37 4 0 8 6 8 14 0 19 26 40 35 26 3 -5 1 -10 -4 -10 -6 0 -11 -12 -11 -26
0 -22 3 -25 23 -21 12 4 29 2 37 -3 11 -7 8 -10 -12 -15 -32 -8 -27 -35 6 -35
19 0 22 -4 18 -30 -5 -34 4 -39 24 -12 12 15 13 15 14 0 0 -9 6 -19 13 -21 7
-4 3 -8 -10 -12 -13 -4 -23 -11 -23 -15 0 -15 40 -42 54 -37 9 4 18 2 21 -3 4
-6 1 -10 -4 -10 -13 0 -15 -37 -2 -44 5 -3 14 8 20 24 15 43 18 37 11 -19 -4
-33 -3 -48 5 -45 6 3 19 -9 28 -26 10 -17 24 -30 30 -29 39 5 41 -2 20 -58 -4
-9 3 -10 29 -3 18 6 34 10 36 10 10 0 18 -49 10 -69 -11 -31 -5 -36 16 -15 11
11 21 13 27 7 6 -6 1 -14 -14 -22 -26 -14 -52 -50 -42 -59 3 -3 12 4 21 16 14
21 45 31 43 15 -3 -21 2 -33 16 -33 8 0 15 -6 15 -14 0 -8 9 -18 20 -21 11 -3
20 -13 20 -21 0 -7 9 -19 20 -26 11 -7 20 -20 20 -30 0 -9 6 -19 13 -22 6 -3
2 -3 -10 0 -25 6 -27 1 -13 -31 7 -17 9 -17 9 -2 1 21 3 21 48 -3 l38 -20 -45
0 -44 0 50 -26 c42 -21 51 -30 48 -50 -1 -15 3 -24 12 -24 8 0 22 -9 31 -20
13 -15 19 -17 26 -7 5 7 6 4 2 -9 -4 -15 1 -24 17 -32 21 -10 22 -11 3 -12
-17 -1 -16 -3 7 -16 18 -9 25 -19 21 -30 -4 -12 0 -15 17 -12 16 2 24 -2 26
-15 4 -26 35 -59 50 -53 7 3 15 -2 18 -10 8 -21 7 -26 -2 -20 -5 3 -9 -1 -9
-9 0 -8 2 -13 5 -11 7 8 42 -29 42 -45 0 -10 11 -19 30 -22 28 -6 43 -27 19
-27 -5 0 -7 -5 -4 -10 3 -6 15 -10 27 -10 13 0 18 -5 15 -14 -4 -9 2 -17 14
-21 10 -4 19 -10 19 -15 0 -5 7 -7 15 -4 18 7 44 -12 55 -41 8 -17 9 -17 9 8
l1 29 30 -29 c33 -31 37 -43 15 -43 -25 0 -17 -30 11 -40 15 -6 22 -14 18 -22
-4 -6 -3 -8 4 -4 6 3 15 -2 21 -11 9 -16 12 -16 21 -3 9 13 11 13 20 0 6 -9
23 -14 47 -13 l38 3 -35 -14 -35 -14 30 -7 c17 -4 36 -8 43 -11 6 -2 12 4 12
14 1 16 1 16 14 0 7 -10 25 -18 40 -18 24 0 26 -3 26 -44 0 -36 -4 -45 -21
-49 -12 -3 -18 -10 -14 -16 9 -16 35 -13 35 4 0 8 4 15 9 15 21 0 41 -13 41
-26 0 -8 7 -14 15 -14 8 0 15 -8 15 -17 0 -14 2 -15 9 -4 7 11 14 10 40 -8 17
-12 31 -18 31 -12 0 6 -5 11 -11 11 -5 0 -7 5 -4 10 4 6 12 4 21 -5 26 -25 54
-36 74 -30 27 9 25 -3 -6 -31 -18 -17 -21 -24 -10 -24 9 0 16 5 16 10 0 6 17
10 39 10 31 0 40 -4 44 -21 5 -17 11 -20 28 -16 15 4 27 0 35 -11 9 -11 13
-12 14 -4 0 6 7 12 16 12 11 0 14 -6 9 -21 -5 -15 -4 -19 4 -14 14 8 43 -13
36 -25 -3 -5 -1 -11 4 -14 5 -4 12 -2 16 4 11 17 33 11 67 -20 18 -17 42 -30
54 -30 12 0 30 -3 39 -6 13 -6 14 -9 3 -16 -8 -6 4 -8 35 -6 33 2 47 -1 47 -9
0 -7 -8 -13 -17 -13 -14 0 -12 -4 7 -17 14 -10 33 -16 44 -14 10 1 22 -3 26
-9 4 -6 27 -13 51 -15 60 -3 59 -3 59 -20 0 -8 9 -15 20 -15 11 0 20 -5 20
-11 0 -6 7 -8 16 -5 19 7 47 -12 38 -26 -4 -6 5 -8 23 -4 23 5 32 3 37 -10 5
-13 9 -14 21 -4 8 7 12 16 9 21 -3 5 1 9 9 9 8 0 14 -8 13 -17 -2 -25 50 -46
116 -47 55 -1 84 -15 36 -17 -21 -1 -21 -2 -3 -6 11 -3 24 -10 28 -17 6 -7 7
-4 3 7 -4 12 0 17 15 17 13 0 23 -8 26 -21 6 -20 6 -20 29 2 13 12 24 17 24
11 0 -12 36 -23 148 -42 53 -10 72 -17 72 -29 1 -14 2 -13 11 1 12 22 42 23
63 2 9 -8 30 -17 48 -18 18 -2 25 -1 16 1 -10 2 -18 9 -18 15 0 6 8 8 18 5 9
-3 32 -10 50 -15 19 -7 32 -7 32 -1 0 5 5 9 10 9 6 0 10 -7 10 -16 0 -13 5
-15 23 -9 31 11 206 6 229 -6 14 -8 26 -6 44 6 13 8 24 11 24 6 0 -17 57 -24
145 -18 33 2 102 5 153 6 51 0 91 4 89 9 -3 4 28 7 69 6 46 -1 71 3 67 9 -4 6
13 8 46 5 28 -3 54 -1 57 4 3 5 12 7 20 4 7 -3 16 -1 19 4 3 5 20 7 37 5 18
-2 38 1 45 7 7 6 22 8 33 5 12 -3 18 -1 14 5 -5 7 12 9 50 6 49 -4 56 -2 56
14 0 10 5 18 10 18 6 0 10 -7 10 -15 0 -20 10 -19 26 3 8 10 13 12 14 5 0 -8
13 -13 31 -13 19 0 28 4 23 11 -4 7 7 10 34 8 23 -2 44 0 48 4 4 4 22 7 40 7
21 0 43 9 61 25 l28 25 -29 -6 c-24 -6 -28 -4 -23 9 4 12 -4 19 -31 28 -20 6
-48 19 -62 28 -14 9 -38 23 -55 30 -16 8 -46 22 -65 33 -19 10 -69 37 -110 59
-41 21 -91 49 -111 62 -20 12 -103 63 -184 112 -80 50 -154 97 -164 106 -9 9
-27 21 -39 28 -44 23 -242 170 -275 203 -10 10 -21 18 -25 18 -4 0 -24 15 -44
33 -20 17 -56 48 -80 67 -23 19 -56 47 -73 62 -50 45 -89 74 -107 81 -10 3
-18 14 -18 23 0 10 -5 14 -15 10 -10 -3 -15 1 -15 12 0 19 -89 99 -103 94 -5
-1 -15 2 -23 9 -7 6 -18 8 -24 4 -15 -9 -52 5 -47 18 5 17 -45 36 -79 30 -28
-5 -28 -5 -9 10 19 15 19 16 2 22 -9 4 -26 5 -37 2 -13 -3 -20 0 -20 9 0 8 10
14 22 14 15 0 19 3 12 10 -8 8 -25 7 -58 -2 -44 -12 -49 -11 -62 7 -16 21 -13
41 5 37 16 -3 14 15 -3 21 -8 3 -24 3 -35 0 -13 -3 -21 -1 -21 7 0 9 -14 11
-50 8 -27 -3 -50 -1 -50 3 0 5 11 9 24 9 35 0 42 18 12 32 -27 12 -33 23 -16
33 6 3 10 11 10 17 0 7 -5 6 -15 -2 -15 -12 -57 -8 -107 12 -32 12 -37 38 -8
38 11 0 20 5 20 11 0 8 -17 10 -52 7 -29 -3 -47 -3 -40 -1 14 5 16 33 2 33 -5
0 -10 11 -10 25 0 14 -4 25 -10 25 -5 0 -10 -18 -10 -40 0 -22 -4 -40 -10 -40
-5 0 -10 10 -10 21 0 12 -11 32 -25 45 -14 13 -25 33 -25 46 0 17 -3 19 -12
10 -19 -19 -25 -14 -31 25 -6 34 -12 41 -54 59 -27 12 -59 25 -72 29 -18 5
-20 9 -10 16 11 7 11 11 1 21 -10 10 -15 10 -23 -2 -8 -11 -9 -9 -3 10 3 14 3
22 -1 18 -10 -9 -47 10 -40 21 2 5 -5 12 -18 15 l-22 7 23 9 c30 13 28 24 -3
16 -19 -5 -25 -2 -25 9 0 20 -30 32 -39 16 -6 -9 -14 -8 -35 2 -21 11 -23 16
-11 20 8 4 15 2 15 -3 0 -15 28 -12 33 3 3 9 7 9 20 -2 15 -12 17 -11 17 9 0
19 -5 21 -39 19 -39 -3 -76 15 -65 32 3 5 0 9 -5 9 -6 0 -11 9 -11 19 0 11 -4
23 -10 26 -16 10 -12 33 8 39 9 3 2 4 -15 2 -32 -2 -33 -1 -33 36 0 21 -4 38
-9 38 -13 0 -20 -73 -8 -87 7 -9 5 -13 -5 -13 -11 0 -15 15 -17 63 -1 45 -6
65 -19 74 -41 30 -59 49 -55 56 2 4 -5 7 -16 7 -12 0 -21 6 -21 14 0 8 -11 23
-23 33 -19 15 -22 22 -13 36 9 14 6 22 -17 41 -18 16 -27 33 -27 54 0 22 -4
29 -17 28 -12 -1 -17 5 -15 18 2 10 1 29 -2 43 -6 20 -10 22 -26 13 -17 -9
-20 -6 -29 27 -5 21 -13 55 -17 76 -6 33 -9 37 -33 35 -24 -3 -26 0 -23 30 1
17 -2 32 -8 32 -5 0 -10 -4 -10 -10 0 -5 -5 -10 -12 -10 -9 0 -9 3 0 12 17 17
15 48 -2 48 -8 0 -17 -6 -20 -12 -3 -7 -3 -2 0 12 4 14 12 28 17 32 10 6 -4
30 -39 63 -29 28 -63 84 -52 87 15 5 -9 78 -25 78 -15 0 -37 46 -37 76 0 12
-7 27 -15 34 -11 9 -13 16 -5 24 16 16 12 24 -12 29 l-23 4 23 2 c27 1 30 21
2 21 -11 0 -20 5 -20 10 0 6 7 10 15 10 8 0 15 5 15 10 0 6 -7 10 -15 10 -8 0
-15 4 -15 9 0 5 -10 7 -22 3 -17 -4 -20 -2 -15 12 4 10 7 24 7 32 0 8 7 14 15
14 33 0 13 25 -21 27 -42 2 -51 8 -36 25 14 18 -6 106 -26 110 -9 2 -15 20
-18 52 -2 27 -9 54 -15 62 -6 7 -8 18 -4 24 3 5 -1 13 -9 16 -10 4 -16 18 -16
38 0 18 -5 37 -12 44 -6 6 -8 15 -4 19 4 4 11 1 16 -7 6 -9 10 -10 10 -3 0 6
-7 19 -17 28 -10 10 -12 19 -6 23 5 4 13 16 17 27 6 16 5 18 -5 8 -20 -20 -41
-16 -34 7 3 10 0 30 -7 42 -7 13 -13 37 -13 53 0 22 -4 30 -17 29 -10 -1 -15
2 -13 7 12 18 -8 111 -27 129 -11 10 -15 21 -10 24 6 3 10 21 10 40 0 29 -5
36 -29 45 -21 7 -29 16 -28 33 l2 23 4 -22 c4 -24 27 -31 38 -13 3 6 2 10 -2
10 -5 0 -15 16 -22 35 -7 19 -18 35 -24 35 -9 0 -9 2 0 8 22 14 21 102 -2 102
-18 0 -20 27 -2 33 9 3 9 7 0 18 -6 8 -13 28 -15 44 -2 22 -8 30 -21 29 -17
-2 -17 6 0 53 3 7 -2 16 -11 19 -19 7 -21 30 -3 37 9 4 8 8 -3 16 -13 10 -13
12 0 21 13 8 12 11 -5 23 -13 10 -19 26 -18 51 1 20 -2 36 -6 36 -4 0 -8 17
-9 38 -1 68 -3 76 -15 90 -9 11 -7 17 8 28 17 13 14 19 -7 15 -5 0 -8 13 -8
30 0 16 4 28 9 24 15 -8 21 9 10 25 -9 13 -11 13 -16 1 -4 -10 -9 -8 -18 10
-11 20 -10 25 4 36 14 11 14 14 1 23 -13 9 -13 11 0 21 11 8 12 12 3 16 -7 2
-13 11 -13 18 0 7 6 16 13 19 6 4 1 4 -11 2 -22 -4 -23 -3 -8 13 18 20 21 47
6 56 -6 4 -8 11 -5 16 3 5 -1 6 -10 3 -17 -7 -17 -8 0 69 3 15 1 27 -4 27 -5
0 -9 32 -8 70 1 55 4 69 15 65 7 -2 10 0 7 5 -3 6 -18 10 -33 11 l-27 0 25 11
c25 11 25 11 3 15 -25 5 -30 18 -10 26 7 3 4 6 -6 6 -14 1 -17 6 -12 24 4 12
14 27 22 34 8 6 12 16 9 22 -3 5 2 12 11 14 14 4 13 5 -4 6 -25 1 -29 20 -13
51 7 13 6 22 -4 33 -10 10 -13 31 -9 80 3 37 10 67 15 67 5 0 0 13 -11 29 -25
35 -26 41 -5 41 13 0 14 3 4 14 -6 8 -10 25 -9 38 2 13 0 29 -5 37 -5 8 -4 16
2 20 15 9 18 147 3 165 -8 10 -9 16 -1 21 5 3 10 1 10 -6 0 -10 3 -10 12 -1 9
9 7 16 -9 29 -16 14 -18 22 -9 35 8 13 8 23 -2 38 -10 16 -10 20 0 20 9 0 8 3
-2 10 -8 5 -10 10 -5 10 6 0 10 43 10 113 -1 61 3 120 7 130 5 10 4 25 -2 37
-9 16 -8 20 5 20 8 0 15 7 15 15 0 10 -10 15 -26 15 -21 0 -24 3 -15 14 6 7
22 11 36 8 15 -2 25 0 25 7 0 6 -13 14 -30 17 l-29 6 20 40 c16 31 18 43 8 54
-8 10 -9 17 0 28 9 10 8 16 -4 26 -14 12 -14 15 1 31 12 13 13 22 5 36 -8 15
-6 22 9 33 18 13 18 14 -1 42 -11 15 -16 28 -11 28 6 0 12 22 14 50 2 41 0 51
-17 59 -20 10 -19 10 3 17 24 7 29 20 10 27 -8 3 -6 6 5 6 14 1 17 11 17 60 0
48 -3 60 -17 64 -15 4 -15 6 5 12 23 8 29 21 12 27 -7 2 -6 14 2 35 10 25 9
35 -2 48 -21 26 -21 47 1 66 20 17 27 35 9 24 -10 -6 -14 6 -10 38 1 10 -6 29
-14 42 -21 32 -20 38 4 23 10 -7 22 -9 26 -6 9 10 -22 39 -31 30 -5 -4 -5 2 0
13 24 61 11 125 -26 125 -12 0 -19 5 -16 13 2 6 10 11 17 9 15 -3 40 16 40 31
0 7 -4 7 -12 -1 -7 -7 -23 -12 -36 -12 l-24 0 20 18 c12 9 24 30 28 45 5 23 3
29 -15 34 -21 5 -20 8 16 39 l37 34 -39 -12 c-22 -7 -44 -17 -48 -23 -5 -6 -7
-4 -4 5 2 8 13 16 25 18 18 3 22 10 22 42 0 28 5 40 18 43 10 3 7 5 -10 6 -22
1 -29 7 -37 38 -6 20 -8 40 -5 45 3 4 -4 8 -15 8 -12 0 -21 -4 -21 -10 0 -5
-8 -10 -17 -10 -17 1 -17 1 0 14 23 18 22 34 -5 56 -13 10 -20 21 -17 24 3 3
15 -3 27 -14 12 -11 28 -17 37 -14 13 5 10 11 -15 34 -16 15 -30 33 -30 40 0
7 -7 22 -16 32 -13 14 -14 21 -5 32 9 10 9 16 1 21 -20 13 23 34 55 27 26 -5
28 -4 15 9 -8 8 -24 18 -34 22 -24 9 -12 23 28 33 20 5 27 3 22 -4 -3 -6 -1
-14 5 -17 17 -11 21 2 7 24 -13 22 -38 29 -38 11 0 -5 -7 -10 -16 -10 -14 0
-14 3 -4 15 11 13 8 15 -19 15 -32 0 -69 25 -57 38 4 3 11 0 16 -7 12 -21 35
-7 38 23 1 15 8 34 16 42 18 17 30 53 22 61 -3 4 -6 -1 -6 -10 0 -10 -5 -17
-11 -17 -7 0 -18 -8 -25 -17 -8 -11 -13 -13 -14 -5 0 6 9 21 20 32 24 24 25
43 4 65 -13 12 -13 19 -4 30 7 8 10 20 7 27 -2 8 -12 0 -24 -19 -18 -31 -21
-32 -39 -17 -13 11 -14 14 -3 11 19 -6 44 49 25 57 -6 3 -2 4 10 1 12 -3 29
-2 39 1 17 7 16 8 -3 15 -12 5 -29 6 -37 3 -8 -4 -15 -1 -15 5 0 6 -11 11 -24
11 -14 0 -27 4 -31 9 -8 14 16 26 47 22 14 -1 29 2 33 8 3 6 1 11 -5 11 -7 0
-10 7 -6 15 3 8 0 15 -7 15 -8 0 -6 4 3 10 11 7 19 4 30 -10 11 -14 19 -17 30
-10 9 6 11 10 3 10 -7 0 -10 7 -7 15 6 14 -7 20 -30 16 -20 -4 -56 10 -56 22
1 6 7 26 15 42 l15 30 -3 -42 c-2 -30 1 -43 10 -43 7 0 13 5 13 11 0 6 8 8 18
5 10 -4 27 0 38 8 15 12 17 17 7 27 -11 11 -13 10 -13 0 0 -7 -6 -11 -14 -8
-7 3 -19 0 -25 -6 -8 -8 -11 -5 -11 12 0 16 4 21 15 18 22 -9 28 9 9 28 -16
16 -55 12 -62 -6 -2 -5 -10 -9 -18 -9 -10 0 -14 -12 -14 -40 0 -49 -15 -53
-24 -7 -5 29 -1 39 29 71 19 21 35 43 35 50 0 7 18 19 40 26 22 7 40 16 40 20
0 9 -62 30 -88 30 -13 0 -22 -6 -22 -15z m-130 -175 c0 -5 -9 -10 -20 -10 -11
0 -20 5 -20 10 0 6 9 10 20 10 11 0 20 -4 20 -10z m115 -60 c11 -17 -5 -32
-21 -19 -7 6 -11 15 -8 20 7 12 21 11 29 -1z m-105 -130 c0 -5 -2 -10 -4 -10
-3 0 -8 5 -11 10 -3 6 -1 10 4 10 6 0 11 -4 11 -10z m-70 -10 c0 -5 -4 -10
-10 -10 -5 0 -10 5 -10 10 0 6 5 10 10 10 6 0 10 -4 10 -10z m140 -10 c0 -5
-7 -7 -15 -4 -8 4 -15 8 -15 10 0 2 7 4 15 4 8 0 15 -4 15 -10z m65 0 c-3 -5
-10 -10 -16 -10 -5 0 -9 5 -9 10 0 6 7 10 16 10 8 0 12 -4 9 -10z m-105 -35
c0 -8 -4 -15 -10 -15 -5 0 -10 7 -10 15 0 8 5 15 10 15 6 0 10 -7 10 -15z
m-34 -49 c2 -11 1 -12 -3 -2 -2 9 -11 12 -20 9 -11 -4 -14 -3 -9 6 10 16 31 8
32 -13z m-121 4 c4 -7 14 -6 28 1 l22 11 -20 -20 c-11 -12 -33 -23 -50 -26
-16 -4 -24 -3 -17 0 6 3 12 14 12 25 0 20 15 26 25 9z m308 -46 c-6 -16 -42
-38 -49 -31 -3 3 2 12 11 20 8 9 15 26 15 39 1 22 1 22 15 5 7 -11 11 -25 8
-33z m-383 14 c0 -7 -11 -18 -25 -25 -29 -13 -32 -7 -8 19 19 21 33 23 33 6z
m187 -30 c-3 -7 -5 -2 -5 12 0 14 2 19 5 13 2 -7 2 -19 0 -25z m-82 12 c-3 -5
-10 -10 -16 -10 -5 0 -9 5 -9 10 0 6 7 10 16 10 8 0 12 -4 9 -10z m15 -35 c0
-10 -10 -15 -27 -15 l-28 1 25 14 c31 18 30 18 30 0z m-103 -41 c-3 -3 -12 -4
-19 -1 -8 3 -5 6 6 6 11 1 17 -2 13 -5z m139 -21 c-10 -10 -19 5 -10 18 6 11
8 11 12 0 2 -7 1 -15 -2 -18z m201 5 c-3 -8 -6 -5 -6 6 -1 11 2 17 5 13 3 -3
4 -12 1 -19z m-320 -33 c-7 -13 -14 -20 -15 -14 -5 14 6 39 17 39 5 0 4 -11
-2 -25z m-226 -29 c-10 -11 -8 -17 6 -25 16 -9 16 -10 -4 -11 -18 0 -23 6 -23
25 0 16 6 25 16 25 13 0 14 -3 5 -14z m499 4 c0 -5 -4 -10 -10 -10 -5 0 -10 5
-10 10 0 6 5 10 10 10 6 0 10 -4 10 -10z m-445 -70 c8 -13 -15 -13 -35 0 -12
8 -11 10 7 10 12 0 25 -4 28 -10z m155 -44 c0 -11 -19 -15 -25 -6 -3 5 1 10 9
10 9 0 16 -2 16 -4z m-273 -79 c4 -7 0 -8 -11 -4 -10 4 -24 7 -32 7 -9 0 -13
4 -10 9 7 11 44 3 53 -12z m168 -37 c3 -5 1 -10 -4 -10 -6 0 -11 5 -11 10 0 6
2 10 4 10 3 0 8 -4 11 -10z m-199 -55 c-8 -8 -20 -15 -27 -15 -7 0 -4 6 7 15
25 19 40 19 20 0z m-6 -45 c0 -5 -7 -7 -15 -4 -8 4 -15 8 -15 10 0 2 7 4 15 4
8 0 15 -4 15 -10z m125 -10 c3 -5 1 -10 -4 -10 -6 0 -11 5 -11 10 0 6 2 10 4
10 3 0 8 -4 11 -10z m-178 -6 c-3 -3 -12 -4 -19 -1 -8 3 -5 6 6 6 11 1 17 -2
13 -5z m220 -9 c0 -8 -4 -12 -9 -9 -5 3 -6 10 -3 15 9 13 12 11 12 -6z m-187
-9 c0 -8 -4 -17 -9 -21 -12 -7 -24 12 -16 25 9 15 25 12 25 -4z m-105 -116 c3
-5 1 -10 -4 -10 -6 0 -11 5 -11 10 0 6 2 10 4 10 3 0 8 -4 11 -10z m845 -20
c0 -5 -4 -10 -10 -10 -5 0 -10 5 -10 10 0 6 5 10 10 10 6 0 10 -4 10 -10z
m-833 -16 c-3 -3 -12 -4 -19 -1 -8 3 -5 6 6 6 11 1 17 -2 13 -5z m-27 -44 c0
-5 -4 -10 -10 -10 -5 0 -10 5 -10 10 0 6 5 10 10 10 6 0 10 -4 10 -10z m880
-39 c0 -6 -4 -13 -10 -16 -5 -3 -10 1 -10 9 0 9 5 16 10 16 6 0 10 -4 10 -9z
m-903 -43 c-3 -8 -6 -5 -6 6 -1 11 2 17 5 13 3 -3 4 -12 1 -19z m930 -344 c-3
-3 -12 -4 -19 -1 -8 3 -5 6 6 6 11 1 17 -2 13 -5z m-12 -24 c3 -5 -1 -10 -10
-10 -9 0 -13 5 -10 10 3 6 8 10 10 10 2 0 7 -4 10 -10z m45 -72 c0 -19 -18
-43 -25 -36 -9 9 4 48 16 48 5 0 9 -6 9 -12z m113 -3015 c5 -26 4 -26 -9 -8
-15 21 -19 49 -5 41 5 -3 11 -18 14 -33z m272 -1023 c-3 -5 -13 -10 -21 -10
-8 0 -14 5 -14 10 0 6 9 10 21 10 11 0 17 -4 14 -10z m-1535 -800 c0 -5 -4
-10 -10 -10 -5 0 -10 5 -10 10 0 6 5 10 10 10 6 0 10 -4 10 -10z m50 -34 c0
-3 -4 -8 -10 -11 -5 -3 -10 -1 -10 4 0 6 5 11 10 11 6 0 10 -2 10 -4z m1860
-6 c0 -5 -4 -10 -10 -10 -5 0 -10 5 -10 10 0 6 5 10 10 10 6 0 10 -4 10 -10z
m40 -135 c0 -8 -4 -15 -10 -15 -5 0 -7 7 -4 15 4 8 8 15 10 15 2 0 4 -7 4 -15z
m-1770 -45 c0 -5 -4 -10 -10 -10 -5 0 -10 5 -10 10 0 6 5 10 10 10 6 0 10 -4
10 -10z m2010 -280 c0 -5 -5 -10 -11 -10 -5 0 -7 5 -4 10 3 6 8 10 11 10 2 0
4 -4 4 -10z m-1720 -216 c0 -17 -22 -14 -28 4 -2 7 3 12 12 12 9 0 16 -7 16
-16z m1940 -94 c0 -5 -2 -10 -4 -10 -3 0 -8 5 -11 10 -3 6 -1 10 4 10 6 0 11
-4 11 -10z m-1793 -56 c-3 -3 -12 -4 -19 -1 -8 3 -5 6 6 6 11 1 17 -2 13 -5z
m2031 -121 c17 -4 20 -8 11 -14 -7 -4 -18 -4 -24 0 -5 5 -19 11 -30 14 l-20 5
20 1 c11 0 31 -2 43 -6z m342 -279 c0 -8 -5 -12 -10 -9 -6 4 -8 11 -5 16 9 14
15 11 15 -7z m-2018 -116 c-9 -9 -15 -9 -24 0 -9 9 -7 12 12 12 19 0 21 -3 12
-12z m2338 -98 c0 -5 -2 -10 -4 -10 -3 0 -8 5 -11 10 -3 6 -1 10 4 10 6 0 11
-4 11 -10z m40 0 c0 -5 -7 -7 -15 -4 -8 4 -15 8 -15 10 0 2 7 4 15 4 8 0 15
-4 15 -10z m32 -52 c-9 -9 -15 -9 -24 0 -9 9 -7 12 12 12 19 0 21 -3 12 -12z
m48 -16 c0 -5 -14 -9 -30 -9 -20 0 -26 3 -18 9 17 10 48 10 48 0z m60 -12 c0
-5 -4 -10 -10 -10 -5 0 -10 5 -10 10 0 6 5 10 10 10 6 0 10 -4 10 -10z m-2145
-220 c3 -6 -4 -10 -17 -10 -18 0 -20 2 -8 10 19 12 18 12 25 0z m172 -96 c-3
-3 -12 -4 -19 -1 -8 3 -5 6 6 6 11 1 17 -2 13 -5z m-4 -44 c21 0 22 -19 2 -26
-19 -8 -41 10 -48 37 -5 19 -4 20 12 5 10 -9 25 -16 34 -16z m227 -165 c0 -14
-4 -25 -10 -25 -5 0 -10 11 -10 25 0 14 5 25 10 25 6 0 10 -11 10 -25z m46
-10 c14 -13 13 -15 -5 -15 -12 0 -21 6 -21 15 0 8 3 15 6 15 3 0 12 -7 20 -15z
m52 -27 c10 -10 15 -10 22 2 8 13 10 13 10 -1 0 -23 -23 -40 -40 -29 -9 5 -19
5 -27 -2 -17 -14 -18 13 -1 30 15 15 21 15 36 0z m252 -144 c0 -2 -9 -4 -21
-4 -11 0 -18 4 -14 10 5 8 35 3 35 -6z m797 -350 c-3 -3 -12 -4 -19 -1 -8 3
-5 6 6 6 11 1 17 -2 13 -5z m53 -14 c0 -5 -7 -10 -15 -10 -8 0 -15 5 -15 10 0
6 7 10 15 10 8 0 15 -4 15 -10z m2070 6 c0 -3 -4 -8 -10 -11 -5 -3 -10 -1 -10
4 0 6 5 11 10 11 6 0 10 -2 10 -4z"/>
<path d="M11700 11921 c0 -11 5 -23 10 -26 6 -3 10 3 10 14 0 11 -4 23 -10 26
-5 3 -10 -3 -10 -14z"/>
<path d="M11760 11929 c0 -5 5 -7 10 -4 6 3 10 8 10 11 0 2 -4 4 -10 4 -5 0
-10 -5 -10 -11z"/>
<path d="M11430 11898 c0 -19 18 -43 25 -36 9 9 -4 48 -16 48 -5 0 -9 -6 -9
-12z"/>
<path d="M11528 11903 c7 -3 16 -2 19 1 4 3 -2 6 -13 5 -11 0 -14 -3 -6 -6z"/>
<path d="M11381 11843 c-1 -24 4 -43 9 -43 12 0 12 24 0 60 -7 21 -8 19 -9
-17z"/>
<path d="M11500 11870 c0 -5 7 -10 15 -10 8 0 15 5 15 10 0 6 -7 10 -15 10 -8
0 -15 -4 -15 -10z"/>
<path d="M11660 11870 c0 -5 5 -10 10 -10 6 0 10 -8 10 -17 0 -13 3 -14 12 -5
8 8 8 15 -2 27 -14 17 -30 20 -30 5z"/>
<path d="M11680 11810 c0 -5 5 -10 11 -10 5 0 7 5 4 10 -3 6 -8 10 -11 10 -2
0 -4 -4 -4 -10z"/>
<path d="M11240 11791 c0 -6 4 -13 10 -16 6 -3 7 1 4 9 -7 18 -14 21 -14 7z"/>
<path d="M11280 11796 c0 -10 28 -13 41 -5 10 6 7 9 -13 9 -16 0 -28 -2 -28
-4z"/>
<path d="M11484 11769 c-3 -6 -1 -16 5 -22 8 -8 11 -5 11 11 0 24 -5 28 -16
11z"/>
<path d="M11201 11734 c0 -11 3 -14 6 -6 3 7 2 16 -1 19 -3 4 -6 -2 -5 -13z"/>
<path d="M11241 11646 c-10 -12 -8 -13 8 -9 12 3 18 9 15 14 -7 12 -10 11 -23
-5z"/>
<path d="M11648 11643 c6 -2 18 -2 25 0 6 3 1 5 -13 5 -14 0 -19 -2 -12 -5z"/>
<path d="M11600 11610 c0 -5 12 -10 28 -9 24 0 25 1 7 9 -27 12 -35 12 -35 0z"/>
<path d="M11200 11600 c0 -5 5 -10 10 -10 6 0 10 5 10 10 0 6 -4 10 -10 10 -5
0 -10 -4 -10 -10z"/>
<path d="M11236 11558 c2 -4 0 -9 -6 -13 -17 -10 -11 -25 9 -25 10 0 21 7 25
15 3 8 11 12 19 9 8 -3 19 1 25 8 9 11 2 13 -33 13 -23 0 -41 -3 -39 -7z"/>
<path d="M11200 11549 c0 -5 5 -7 10 -4 6 3 10 8 10 11 0 2 -4 4 -10 4 -5 0
-10 -5 -10 -11z"/>
<path d="M11111 11514 c0 -11 3 -14 6 -6 3 7 2 16 -1 19 -3 4 -6 -2 -5 -13z"/>
<path d="M11130 11501 c0 -12 5 -21 10 -21 6 0 10 6 10 14 0 8 -4 18 -10 21
-5 3 -10 -3 -10 -14z"/>
<path d="M11672 11475 c0 -16 2 -22 5 -12 2 9 2 23 0 30 -3 6 -5 -1 -5 -18z"/>
<path d="M11150 11360 c0 -22 5 -40 10 -40 6 0 10 18 10 40 0 22 -4 40 -10 40
-5 0 -10 -18 -10 -40z"/>
<path d="M11680 11338 c0 -18 -5 -28 -15 -28 -8 0 -15 -4 -15 -10 0 -18 25
-11 38 10 9 15 10 26 3 38 -9 14 -10 13 -11 -10z"/>
<path d="M10990 11345 c0 -2 15 -12 33 -20 l32 -16 -25 20 c-24 20 -40 26 -40
16z"/>
<path d="M10990 11261 c0 -6 5 -13 10 -16 6 -3 10 1 10 9 0 9 -4 16 -10 16 -5
0 -10 -4 -10 -9z"/>
<path d="M10960 11230 c0 -5 5 -10 10 -10 6 0 10 5 10 10 0 6 -4 10 -10 10 -5
0 -10 -4 -10 -10z"/>
<path d="M19495 11164 c-177 -27 -439 -128 -628 -240 -209 -124 -515 -405
-675 -619 -229 -306 -426 -886 -499 -1470 -24 -194 -24 -619 1 -795 30 -218
54 -319 97 -410 126 -264 378 -529 598 -627 184 -82 499 -93 764 -26 241 60
548 214 732 367 27 22 61 50 75 61 49 39 298 291 341 345 81 102 199 264 199
274 0 10 64 96 72 96 4 0 8 7 8 15 0 32 23 65 42 59 13 -4 18 -1 16 13 -3 42
2 53 27 53 31 0 33 -17 3 -22 -29 -4 -35 -28 -9 -35 25 -6 22 -29 -3 -27 -20
2 -21 -12 -1 -20 21 -8 19 -23 -6 -29 -15 -4 -19 -2 -15 9 3 9 1 12 -4 9 -6
-3 -10 -13 -10 -21 0 -10 7 -13 28 -9 26 6 26 6 7 -10 -16 -13 -17 -17 -6 -24
8 -5 11 -16 8 -26 -4 -9 -11 -13 -17 -10 -5 3 -18 1 -27 -5 -17 -11 -17 -11 1
-6 16 6 18 2 13 -23 -7 -34 11 -53 25 -27 5 9 14 14 19 10 6 -3 7 4 3 20 -4
17 -2 26 6 26 6 0 17 6 24 13 25 25 85 123 91 150 4 15 11 27 16 27 5 0 13 11
18 23 5 13 27 62 49 108 44 95 102 244 129 334 9 33 20 62 24 65 3 3 11 28 16
55 59 276 73 353 78 435 4 52 9 98 12 102 6 10 4 248 -2 333 -17 218 -97 502
-197 705 -65 132 -96 181 -187 295 -201 252 -499 431 -805 480 -112 18 -330
18 -451 -1z"/>
<path d="M11640 11125 c0 -45 28 -75 59 -64 21 8 21 9 4 27 -13 13 -19 14 -21
5 -2 -7 -8 -13 -13 -13 -6 0 -8 9 -4 19 3 11 1 22 -5 26 -8 5 -8 11 1 21 9 11
8 14 -5 14 -12 0 -16 -9 -16 -35z"/>
<path d="M11680 11145 c0 -8 2 -15 4 -15 2 0 6 7 10 15 3 8 1 15 -4 15 -6 0
-10 -7 -10 -15z"/>
<path d="M11700 11031 c0 -6 5 -13 10 -16 6 -4 8 -11 5 -16 -4 -5 1 -9 9 -9
19 0 20 9 2 33 -14 19 -26 22 -26 8z"/>
<path d="M11688 10958 c9 -9 15 -9 24 0 9 9 7 12 -12 12 -19 0 -21 -3 -12 -12z"/>
<path d="M11745 10960 c3 -5 8 -10 11 -10 2 0 4 5 4 10 0 6 -5 10 -11 10 -5 0
-7 -4 -4 -10z"/>
<path d="M11710 10930 c0 -5 9 -10 20 -10 11 0 20 5 20 10 0 6 -9 10 -20 10
-11 0 -20 -4 -20 -10z"/>
<path d="M10800 10870 c0 -5 5 -10 10 -10 6 0 10 5 10 10 0 6 -4 10 -10 10 -5
0 -10 -4 -10 -10z"/>
<path d="M10705 10681 c-3 -5 -1 -12 5 -16 5 -3 10 1 10 9 0 18 -6 21 -15 7z"/>
<path d="M11760 10451 c0 -5 7 -11 15 -15 9 -3 15 0 15 9 0 8 -7 15 -15 15 -8
0 -15 -4 -15 -9z"/>
<path d="M11768 10345 c2 -14 9 -25 14 -25 6 0 7 7 4 16 -3 9 -6 20 -6 25 0 5
-4 9 -9 9 -4 0 -6 -11 -3 -25z"/>
<path d="M10455 9970 c3 -5 8 -10 11 -10 2 0 4 5 4 10 0 6 -5 10 -11 10 -5 0
-7 -4 -4 -10z"/>
<path d="M21345 9621 c-3 -5 -1 -12 5 -16 5 -3 10 1 10 9 0 18 -6 21 -15 7z"/>
<path d="M4242 9340 c0 -14 2 -19 5 -12 2 6 2 18 0 25 -3 6 -5 1 -5 -13z"/>
<path d="M4231 9174 c0 -11 3 -14 6 -6 3 7 2 16 -1 19 -3 4 -6 -2 -5 -13z"/>
<path d="M4220 9108 c0 -19 2 -20 10 -8 13 19 13 30 0 30 -5 0 -10 -10 -10
-22z"/>
<path d="M4221 9064 c0 -11 3 -14 6 -6 3 7 2 16 -1 19 -3 4 -6 -2 -5 -13z"/>
<path d="M4200 8780 c0 -11 2 -20 4 -20 2 0 6 9 9 20 3 11 1 20 -4 20 -5 0 -9
-9 -9 -20z"/>
<path d="M4193 8520 c0 -25 2 -35 4 -22 2 12 2 32 0 45 -2 12 -4 2 -4 -23z"/>
<path d="M11720 8300 c0 -5 5 -10 10 -10 6 0 10 5 10 10 0 6 -4 10 -10 10 -5
0 -10 -4 -10 -10z"/>
<path d="M20550 7995 c0 -5 5 -17 10 -25 5 -8 10 -10 10 -5 0 6 -5 17 -10 25
-5 8 -10 11 -10 5z"/>
<path d="M20594 7974 c2 -16 7 -27 12 -24 10 5 7 31 -6 44 -5 5 -8 -4 -6 -20z"/>
<path d="M11840 7440 c0 -19 3 -21 12 -12 9 9 9 15 0 24 -9 9 -12 7 -12 -12z"/>
<path d="M11885 7250 c-3 -5 -1 -10 4 -10 6 0 11 5 11 10 0 6 -2 10 -4 10 -3
0 -8 -4 -11 -10z"/>
<path d="M12138 6193 c7 -3 16 -2 19 1 4 3 -2 6 -13 5 -11 0 -14 -3 -6 -6z"/>
<path d="M12320 5739 c0 -5 5 -7 10 -4 6 3 10 8 10 11 0 2 -4 4 -10 4 -5 0
-10 -5 -10 -11z"/>
<path d="M12391 5641 c-8 -5 -9 -11 -3 -15 5 -3 12 1 16 9 6 17 6 18 -13 6z"/>
<path d="M12466 5475 c4 -8 8 -15 10 -15 2 0 4 7 4 15 0 8 -4 15 -10 15 -5 0
-7 -7 -4 -15z"/>
<path d="M10648 5153 c7 -3 16 -2 19 1 4 3 -2 6 -13 5 -11 0 -14 -3 -6 -6z"/>
<path d="M12712 5014 c-7 -8 -8 -14 -3 -14 10 0 25 19 20 25 -2 1 -10 -3 -17
-11z"/>
<path d="M4132 5000 c0 -14 2 -19 5 -12 2 6 2 18 0 25 -3 6 -5 1 -5 -13z"/>
<path d="M10770 5009 c0 -5 5 -7 10 -4 6 3 10 8 10 11 0 2 -4 4 -10 4 -5 0
-10 -5 -10 -11z"/>
<path d="M12720 4980 c0 -5 18 -10 40 -10 22 0 40 -5 40 -11 0 -5 5 -7 12 -3
8 5 2 12 -17 20 -36 16 -75 18 -75 4z"/>
<path d="M4132 4950 c0 -14 2 -19 5 -12 2 6 2 18 0 25 -3 6 -5 1 -5 -13z"/>
<path d="M4132 4890 c0 -19 2 -27 5 -17 2 9 2 25 0 35 -3 9 -5 1 -5 -18z"/>
<path d="M10926 4757 c3 -10 9 -15 12 -12 3 3 0 11 -7 18 -10 9 -11 8 -5 -6z"/>
<path d="M20020 4740 c-9 -6 -10 -10 -3 -10 6 0 15 5 18 10 8 12 4 12 -15 0z"/>
<path d="M19970 4715 c-17 -10 -20 -14 -9 -15 9 0 22 7 29 15 15 18 12 18 -20
0z"/>
<path d="M12951 4700 c0 -8 4 -24 8 -34 6 -15 10 -16 16 -7 4 7 3 16 -2 20 -6
3 -13 13 -16 21 -5 13 -5 13 -6 0z"/>
<path d="M19897 4674 c-16 -9 -27 -18 -24 -20 3 -3 20 4 38 15 39 24 28 28
-14 5z"/>
<path d="M4134 4370 c3 -157 10 -395 16 -530 5 -135 12 -310 15 -390 4 -80 10
-215 16 -300 5 -85 13 -238 19 -340 5 -102 14 -241 20 -310 5 -69 11 -161 14
-205 42 -621 80 -847 186 -1115 25 -65 115 -244 140 -280 32 -47 112 -204 136
-267 13 -35 27 -95 30 -133 6 -58 10 -70 25 -70 10 0 20 4 24 10 3 5 12 7 19
4 10 -4 13 6 11 38 -4 74 -43 184 -90 250 -182 257 -255 395 -323 609 -71 221
-89 328 -117 674 -54 679 -75 1032 -95 1550 -5 149 -14 380 -20 515 -5 135
-12 317 -16 405 -3 88 -8 162 -11 165 -3 3 -3 -123 1 -280z"/>
<path d="M13200 4476 c0 -4 7 -14 15 -22 8 -9 15 -11 15 -6 0 5 -7 15 -15 22
-8 7 -15 9 -15 6z"/>
<path d="M11145 4450 c-3 -5 -1 -10 4 -10 6 0 11 5 11 10 0 6 -2 10 -4 10 -3
0 -8 -4 -11 -10z"/>
<path d="M11185 4430 c3 -5 8 -10 11 -10 2 0 4 5 4 10 0 6 -5 10 -11 10 -5 0
-7 -4 -4 -10z"/>
<path d="M11250 4376 c0 -9 5 -16 10 -16 6 0 10 4 10 9 0 6 -4 13 -10 16 -5 3
-10 -1 -10 -9z"/>
<path d="M11346 4195 c4 -8 8 -15 10 -15 2 0 4 7 4 15 0 8 -4 15 -10 15 -5 0
-7 -7 -4 -15z"/>
<path d="M13605 4160 c-3 -5 1 -10 10 -10 9 0 13 5 10 10 -3 6 -8 10 -10 10
-2 0 -7 -4 -10 -10z"/>
<path d="M13797 4054 c-8 -8 1 -24 14 -24 5 0 9 7 9 15 0 15 -12 20 -23 9z"/>
<path d="M13800 3990 c0 -5 5 -10 11 -10 5 0 7 5 4 10 -3 6 -8 10 -11 10 -2 0
-4 -4 -4 -10z"/>
<path d="M13905 3960 c-16 -7 -17 -9 -3 -9 9 -1 20 4 23 9 7 11 7 11 -20 0z"/>
<path d="M14000 3876 c0 -9 40 -13 46 -5 3 5 -6 9 -20 9 -14 0 -26 -2 -26 -4z"/>
<path d="M12267 3304 c-14 -15 -6 -34 14 -34 14 0 19 5 17 17 -3 18 -20 27
-31 17z"/>
<path d="M12880 2930 c0 -5 5 -10 10 -10 6 0 10 5 10 10 0 6 -4 10 -10 10 -5
0 -10 -4 -10 -10z"/>
<path d="M13176 2815 c4 -8 10 -15 15 -15 5 0 9 7 9 15 0 8 -7 15 -15 15 -9 0
-12 -6 -9 -15z"/>
<path d="M15730 2706 c0 -8 5 -18 10 -21 6 -3 10 1 10 9 0 8 -4 18 -10 21 -5
3 -10 -1 -10 -9z"/>
<path d="M15685 2700 c3 -5 11 -10 16 -10 6 0 7 5 4 10 -3 6 -11 10 -16 10 -6
0 -7 -4 -4 -10z"/>
<path d="M13870 2610 c0 -5 5 -10 10 -10 6 0 10 5 10 10 0 6 -4 10 -10 10 -5
0 -10 -4 -10 -10z"/>
<path d="M17328 2003 c-10 -2 -18 -9 -18 -14 0 -15 43 -7 48 9 4 12 0 13 -30
5z"/>
</g>
</svg>
